<svg width="102" height="119" viewBox="0 0 102 119" fill="none" xmlns="http://www.w3.org/2000/svg">
<rect width="102" height="118.746" fill="#0060AE"/>
<path d="M94.551 45.5263C92.6728 44.6306 90.9354 43.782 89.2449 42.8863C89.0922 42.7615 88.9704 42.603 88.889 42.423C88.8075 42.2431 88.7686 42.0467 88.7753 41.8492C88.7284 39.0205 88.7753 36.1448 88.7753 33.269C84.5962 31.2419 80.417 29.2619 76.2378 27.2347C72.9978 25.6318 69.7108 24.0289 66.4708 22.4732C61.8221 20.2103 57.1264 18.0417 52.5716 15.6845C52.0889 15.3951 51.5372 15.2423 50.975 15.2423C50.4129 15.2423 49.8611 15.3951 49.3785 15.6845C44.7298 18.0417 40.081 20.3046 35.3853 22.5675C29.4688 25.4432 23.5522 28.2718 17.6356 31.1005C16.4617 31.6662 15.2878 32.279 14.1139 32.8448C13.8431 32.9334 13.6111 33.1132 13.4571 33.3537C13.3031 33.5942 13.2366 33.8807 13.2686 34.1648C13.3156 41.6134 13.2686 49.0621 13.2686 56.4636V77.7724C13.2686 78.7625 12.9869 79.0453 12.0478 78.9982C10.8914 78.9039 9.72933 78.9039 8.57296 78.9982C7.58686 79.0453 7.25816 78.8096 7.30512 77.7724C7.35207 73.341 7.35206 68.9095 7.35206 64.478V30.959C7.31117 30.5888 7.38941 30.2152 7.5753 29.8928C7.76119 29.5705 8.04497 29.3163 8.38512 29.1676C11.813 27.5647 15.1939 25.8675 18.6217 24.2175C21.3922 22.8975 24.1626 21.5775 26.9331 20.2103C31.394 18.0417 35.8079 15.8731 40.2219 13.7517C43.6028 12.1016 46.9837 10.4516 50.3646 8.84875C50.7594 8.70732 51.1907 8.70732 51.5855 8.84875C57.9247 11.8659 64.2169 14.9774 70.5561 18.0417C76.9422 21.1532 83.3753 24.2647 89.7614 27.3761C91.1232 28.0361 92.438 28.6961 93.7997 29.309C94.0696 29.4135 94.2982 29.6035 94.4507 29.8503C94.6033 30.097 94.6715 30.387 94.645 30.6762V44.442C94.6565 44.8059 94.625 45.1699 94.551 45.5263Z" fill="white"/>
<path d="M80.2301 40.0576C81.3571 40.5762 82.2493 41.0005 83.1414 41.4248C83.9512 41.7605 84.7359 42.1544 85.4893 42.6034C85.6751 42.7361 85.833 42.9043 85.9539 43.0985C86.0748 43.2927 86.1563 43.5089 86.1936 43.7348C86.2406 59.7164 86.2406 75.7452 86.2406 91.7268C86.2442 92.19 86.1552 92.6491 85.9789 93.0771C85.8026 93.5051 85.5426 93.8932 85.2142 94.2185C84.8858 94.5438 84.4958 94.7997 84.0672 94.9709C83.6385 95.1421 83.18 95.2253 82.7188 95.2154H52.1968C51.4455 95.2154 51.2107 94.9797 51.2577 94.2254C51.3047 92.8583 51.3047 91.4911 51.2577 90.1711C51.2107 89.4168 51.5395 89.2282 52.2438 89.2282C54.169 89.2754 56.1412 89.2282 58.2073 89.2282V83.4296C58.2308 83.0685 58.2308 82.7063 58.2073 82.3453C58.1134 81.5438 58.6769 81.2138 59.2873 81.2138C60.5082 81.1667 61.6821 81.3081 63.0439 81.3553V89.1811H72.0126V85.3625H67.6457C66.143 85.3625 65.8143 84.9853 65.7674 83.5239C65.7674 81.3553 65.7674 81.3553 67.9274 81.3553C70.6978 81.3553 73.4683 81.4024 76.2388 81.3553C77.037 81.3553 77.2718 81.591 77.2249 82.3924C77.1779 84.6553 77.2249 86.9182 77.2249 89.2754H80.324C80.2301 72.9637 80.2301 56.6992 80.2301 40.0576Z" fill="white"/>
<path d="M15.8989 41.4254C15.7841 41.0247 15.7055 40.6145 15.6641 40.1997C15.5859 38.8173 15.6016 37.4312 15.7111 36.051C15.7477 35.7641 15.8466 35.4888 16.0007 35.2444C16.1549 35 16.3606 34.7926 16.6033 34.6367C19.3737 33.2224 22.2381 31.9024 25.0555 30.5352C29.6573 28.3195 34.2121 26.1038 38.8139 23.888C42.3826 22.1437 45.9513 20.4937 49.4731 18.6551C50.647 18.0422 51.5862 18.1837 52.6662 18.7022C56.4227 20.5408 60.1793 22.3323 63.9358 24.1709C67.5985 25.9623 71.2141 27.7538 74.8298 29.5452C78.1638 31.1953 81.4977 32.7981 84.8786 34.3539C85.8177 34.7782 86.3343 35.2967 86.2403 36.4282C86.1464 37.7482 86.2404 39.0682 86.1934 40.3882C86.163 40.7204 86.116 41.0508 86.0525 41.3782C83.9395 40.3411 81.9203 39.3982 79.9481 38.4553C76.2855 36.6639 72.5759 34.9196 68.9133 33.1281C65.3445 31.3838 61.8228 29.6395 58.2541 27.8952C56.0471 26.8109 53.7932 25.7266 51.5392 24.6895C51.193 24.548 50.8054 24.548 50.4592 24.6895C45.5757 27.0466 40.6922 29.4509 35.8556 31.8081C32.3338 33.5053 28.7651 35.2024 25.2434 36.8996C22.1912 38.3139 19.1389 39.8225 15.8989 41.4254Z" fill="white"/>
<path d="M13.2694 89.2282H25.9008C25.9008 87.8139 25.9477 86.4468 25.9008 85.0796C25.8538 84.1367 26.2764 83.7124 27.1686 83.7124H30.6904V89.1811H36.3721C36.3721 87.3425 36.4191 85.5039 36.3721 83.6653C36.2782 81.6381 37.3113 81.3553 38.673 81.3553C42.007 81.261 45.3879 81.3081 48.7218 81.3081C49.2853 81.3081 49.614 81.4496 49.614 82.1567C49.6609 86.1639 49.7079 90.2182 49.8018 94.2254C49.8018 95.0269 49.567 95.2154 48.7688 95.2154C36.1843 95.2154 23.6468 95.2154 11.0624 95.1683C8.99629 95.1683 7.3528 94.2254 7.30584 91.5854C7.25889 88.0968 7.30584 84.561 7.30584 81.0724C7.30584 80.3181 7.6815 80.0824 8.3389 80.1295C9.60674 80.1295 10.8276 80.1767 12.0955 80.1295C12.9407 80.0824 13.2694 80.4124 13.2694 81.3081C13.2694 83.901 13.2694 86.5411 13.2694 89.2282ZM41.3965 85.3625V88.7097C41.3965 89.4168 42.007 89.2754 42.3357 89.2282C43.087 89.0397 44.2609 89.8882 44.5427 88.7568C44.8244 87.7196 44.5896 86.5411 44.5896 85.4096C43.5096 85.3625 42.5705 85.3625 41.3965 85.3625Z" fill="white"/>
<path d="M88.7755 44.2073C90.7007 45.1501 92.5321 45.9987 94.2695 46.9416C94.5512 47.083 94.6921 47.6487 94.6921 48.0259C94.739 51.7031 94.6921 55.3803 94.6921 59.0575V91.3979C94.6921 93.755 93.1894 95.2636 90.8416 95.2636C88.7755 95.2636 88.7755 95.2636 88.7755 93.1893V44.2073Z" fill="white"/>
<path d="M51.7276 34.2593C54.0755 34.6364 56.0007 35.815 57.7381 37.2293C60.4168 39.292 62.4134 42.118 63.4669 45.338C64.1712 47.5537 64.8756 49.9109 64.7816 52.1738C64.4999 60.0467 60.1799 67.4011 51.5868 70.0411C48.8851 70.9276 45.9911 71.0418 43.2284 70.3711C35.9501 68.5797 31.4892 63.8654 29.4231 56.7938C29.0704 55.2424 28.8349 53.6665 28.7188 52.0795C28.7301 51.7672 28.8103 51.4613 28.9535 51.1838C29.4231 53.0224 29.7048 54.8138 30.3622 56.4638C32.3814 61.5082 35.9971 64.9968 41.3502 66.3168C46.7033 67.6368 51.6337 66.5525 55.8598 62.8282C59.0794 60.0595 61.0862 56.1314 61.4477 51.8909C62.199 44.678 58.8181 37.795 51.9624 34.4479C51.8685 34.3064 51.7746 34.2593 51.7276 34.2593Z" fill="white"/>
<path d="M66.7525 105.304C66.5647 106.719 66.3299 108.133 66.283 109.547C66.236 110.396 66.0012 110.82 65.0621 110.726C64.4517 110.679 63.8412 110.726 63.043 110.726C63.1838 109.783 63.3247 108.887 63.4656 108.039C63.8412 105.728 64.2638 103.371 64.6395 101.061C64.7804 100.213 65.0621 99.7413 66.0482 99.8356C67.8795 99.9299 67.8326 99.8827 68.396 101.674C68.6778 102.617 69.1004 103.56 69.476 104.503C69.5994 104.749 69.7407 104.985 69.8987 105.21C70.65 103.418 71.2135 101.863 71.9178 100.354C72.0016 100.211 72.1174 100.09 72.256 100C72.3946 99.9103 72.5521 99.8539 72.7161 99.8356C75.1109 99.5999 75.1109 99.7413 75.3457 102.146C75.5804 104.644 76.05 107.096 76.4257 109.547C76.4726 109.877 76.5196 110.254 76.5666 110.726C75.7681 110.758 74.9683 110.742 74.1717 110.679C73.9369 110.679 73.6552 110.349 73.6083 110.113C73.3265 108.557 73.1387 107.001 72.9039 105.116C72.1526 106.86 71.4952 108.321 70.8847 109.83C70.6969 110.349 70.556 110.726 69.9456 110.726C69.2882 110.773 69.1004 110.443 68.9126 109.924C68.3021 108.369 67.6447 106.813 67.0343 105.257C66.9438 105.289 66.8485 105.305 66.7525 105.304Z" fill="white"/>
<path d="M52.9941 105.257C52.9941 103.749 53.0411 102.287 52.9941 100.779C52.9941 100.071 53.182 99.7415 53.9333 99.7886C55.3889 99.8829 56.7977 99.8357 58.2533 100.024C60.8359 100.354 62.4325 102.711 62.6673 104.644C62.8157 105.85 62.5529 107.07 61.9218 108.106C61.2908 109.142 60.3287 109.932 59.1925 110.349C57.9666 110.665 56.6999 110.792 55.4359 110.726C52.9941 110.773 52.9941 110.726 52.9941 108.322V105.257ZM56.1872 102.664V108.039C57.549 108.227 58.7698 107.897 59.0046 106.954C59.3099 105.876 59.3099 104.733 59.0046 103.654C58.582 102.57 57.3611 102.381 56.1872 102.664Z" fill="white"/>
<path d="M43.8848 103.701C43.8848 102.664 43.9317 101.627 43.8848 100.637C43.8378 99.9767 44.1196 99.7882 44.73 99.7882C47.3126 99.8353 46.7961 99.4582 46.8431 101.815C46.89 104.408 46.8431 107.048 46.8431 109.641V110.631H43.9317V106.388H40.1752V110.631H37.1699V107.897C37.1699 105.493 37.2169 103.088 37.1699 100.684C37.1699 99.9767 37.4047 99.7882 38.0621 99.7882C40.1282 99.7882 40.1282 99.741 40.1282 101.862V103.701H43.8848Z" fill="white"/>
<path d="M36.6998 110.726C35.385 110.726 34.305 110.773 33.272 110.679C32.8827 110.568 32.5378 110.337 32.2859 110.019C31.3937 108.935 30.5485 107.803 29.4685 106.719C29.4685 107.756 29.4215 108.793 29.4685 109.783C29.5154 110.538 29.2337 110.726 28.5293 110.726C26.4163 110.726 26.4163 110.726 26.3693 108.652C26.3224 106.012 26.3223 103.372 26.2754 100.732C26.2754 100.025 26.5102 99.7889 27.1676 99.7889C29.938 99.836 29.3746 99.5531 29.4215 101.91V103.985C30.3606 102.712 31.2528 101.675 32.0041 100.543C32.1529 100.269 32.3801 100.046 32.6564 99.9036C32.9326 99.7607 33.2452 99.7043 33.5537 99.7417C34.352 99.7889 35.1033 99.7417 36.2303 99.7417C35.6668 100.496 35.2442 101.062 34.7746 101.627C34.0703 102.476 33.3659 103.372 32.6146 104.173C32.0511 104.786 32.192 105.21 32.6615 105.776C33.9763 107.426 35.2442 108.982 36.6998 110.726Z" fill="white"/>
<path d="M88.0257 110.725C87.3683 110.725 86.8048 110.678 86.2883 110.725C85.3022 110.773 84.4569 110.82 84.3161 109.452C84.3161 109.264 83.8465 108.981 83.5648 108.934C83.0013 108.84 82.4378 108.981 81.8743 108.887C80.8413 108.745 80.1369 109.028 79.8552 110.16C79.8082 110.395 79.3856 110.631 79.1038 110.678C78.3525 110.725 77.6012 110.725 76.6621 110.725C76.8499 110.16 76.9908 109.688 77.1317 109.217C78.1647 106.388 79.2447 103.607 80.2778 100.778C80.5595 99.9767 81.0291 99.7881 81.8274 99.7881C83.8465 99.8352 83.8465 99.8352 84.5509 101.674C85.7248 104.644 86.8517 107.614 88.0257 110.725ZM82.2969 103.512C81.9213 104.691 81.5926 105.587 81.3108 106.53H83.283C82.9543 105.54 82.6726 104.644 82.2969 103.512Z" fill="white"/>
<path d="M18.7639 110.726C17.8715 110.758 16.9781 110.743 16.0874 110.678C15.9189 110.618 15.7672 110.518 15.6447 110.386C15.5223 110.255 15.4326 110.097 15.383 109.924C15.1483 109.075 14.6787 108.745 13.8334 108.887C13.475 108.934 13.1119 108.934 12.7534 108.887C11.7204 108.745 10.9691 108.981 10.7812 110.16C10.7343 110.396 10.3586 110.631 10.0769 110.678C9.27862 110.726 8.4334 110.726 7.49426 110.726C7.68209 110.113 7.776 109.594 7.96383 109.123C9.04384 106.247 10.1708 103.418 11.2978 100.59C11.3876 100.406 11.5195 100.246 11.6828 100.123C11.846 100 12.0359 99.9176 12.2369 99.8825C15.1483 99.9297 14.5378 99.3168 15.6178 102.145C16.557 104.644 17.4961 107.143 18.3883 109.688C18.5362 110.025 18.6616 110.372 18.7639 110.726ZM13.223 103.654H12.9882C12.7065 104.597 12.3778 105.493 12.0961 106.483H14.1152C13.8335 105.493 13.5048 104.597 13.223 103.654Z" fill="white"/>
<path d="M92.2985 102.57C92.2985 104.975 92.2515 107.238 92.2985 109.5C92.3455 110.396 92.1107 110.773 91.1246 110.726C89.1054 110.632 89.1054 110.726 89.1054 108.652V102.57H88.2132C86.8984 102.57 86.6637 102.287 86.7106 101.015C86.7106 100.213 86.9454 99.7417 87.8845 99.7889C89.7628 99.836 91.6411 99.836 93.5194 99.7889C94.3176 99.7889 94.6463 100.119 94.6463 100.92C94.6463 101.722 94.7872 102.57 93.5663 102.617C93.1452 102.573 92.7217 102.558 92.2985 102.57Z" fill="white"/>
<path d="M19.373 110.678V100.731C19.373 100.071 19.5139 99.7881 20.2652 99.7881C22.66 99.8352 22.5661 99.4581 22.5661 102.051V108.132C23.4113 108.132 24.1626 108.18 24.9609 108.132C25.5713 108.085 25.8061 108.321 25.7592 108.934C25.7122 109.5 25.7592 110.065 25.7592 110.678H19.373Z" fill="white"/>
<path d="M51.3977 110.678H48.4864C48.4348 110.43 48.4034 110.178 48.3925 109.924V100.825C48.3925 100.071 48.5803 99.7883 49.3785 99.7883C51.3507 99.8355 51.3507 99.7883 51.3507 101.768C51.3977 104.691 51.3977 107.614 51.3977 110.678Z" fill="white"/>
<path d="M70.7915 80.6015C69.1949 80.6015 67.7392 80.6486 66.2836 80.5543C66.0488 80.5543 65.861 80.13 65.6731 79.9415V79.8472C65.6731 77.1129 65.3914 76.2643 68.9132 76.4057C71.0732 76.5 70.7915 76.1229 70.7915 78.2914C70.7915 78.9986 70.7915 79.7057 70.7915 80.6015Z" fill="white"/>
<path d="M20.9232 76.5941V80.5541H16.3214C16.2058 80.5302 16.0997 80.4729 16.0162 80.3891C15.9327 80.3053 15.8756 80.1987 15.8518 80.0827C15.7814 79.33 15.7814 78.5724 15.8518 77.8198C15.9457 77.1126 16.3214 76.5469 17.2136 76.5941C18.4814 76.6412 19.6553 76.5941 20.9232 76.5941Z" fill="white"/>
<path d="M26.6999 80.5072H21.8164V76.5943C23.1312 76.5943 24.4929 76.5472 25.8077 76.6415C26.0096 76.7121 26.1917 76.8303 26.3388 76.9862C26.4858 77.142 26.5936 77.331 26.653 77.5372C26.7398 78.5248 26.7555 79.5174 26.6999 80.5072Z" fill="white"/>
</svg>
