<?xml version="1.0" encoding="UTF-8"?>
<svg version="1.1" xmlns="http://www.w3.org/2000/svg" width="263" height="270">
<path d="M0 0 C10.12106587 7.82773248 19.32838543 17.14379007 26.00976562 28.08325195 C26.87988281 29.4290332 26.87988281 29.4290332 27.76757812 30.80200195 C43.14656433 55.56816156 46.69129898 86.89350994 40.55322266 115.18774414 C36.43849267 130.9747101 28.34764798 144.67428281 18.00976562 157.08325195 C17.48769531 157.75743164 16.965625 158.43161133 16.42773438 159.1262207 C1.37386203 178.08455561 -23.8674448 189.3447287 -47.12304688 193.6652832 C-63.51639395 195.4370894 -80.21180294 195.05208714 -95.99023438 190.08325195 C-97.01117188 189.76976807 -97.01117188 189.76976807 -98.05273438 189.44995117 C-113.16883207 184.67249132 -126.21497588 176.67171274 -137.99023438 166.08325195 C-138.75722656 165.39875977 -139.52421875 164.71426758 -140.31445312 164.0090332 C-160.12583752 145.30404375 -170.37421176 119.9815194 -171.21289062 93.0637207 C-171.83463419 61.5036332 -162.84591201 34.17924122 -140.99023438 11.08325195 C-104.45591027 -26.83285446 -42.1082578 -30.8520195 0 0 Z " fill="#10587F" transform="translate(194.990234375,42.916748046875)"/>
<path d="M0 0 C1.875 0.3125 1.875 0.3125 4 1 C4.99 2.485 4.99 2.485 6 4 C6.99 3.01 7.98 2.02 9 1 C10.65 1.66 12.3 2.32 14 3 C13.67 4.98 13.34 6.96 13 9 C12.01 9.33 11.02 9.66 10 10 C10.495 10.99 10.495 10.99 11 12 C11.66 12 12.32 12 13 12 C15.12046792 8.46588679 15.53199289 5.05606165 16 1 C16.99 1 17.98 1 19 1 C19.99 1.99 19.99 1.99 21 3 C20.625 6.625 20.625 6.625 20 10 C22.27521866 7.83312509 24.15794162 5.54379491 26 3 C26.99 3.99 26.99 3.99 28 5 C28.433125 4.505 28.86625 4.01 29.3125 3.5 C31 2 31 2 34 2 C34 3.98 34 5.96 34 8 C35.98 8 37.96 8 40 8 C39.25 9.9375 39.25 9.9375 38 12 C35.875 12.75 35.875 12.75 34 13 C37.53411321 15.12046792 40.94393835 15.53199289 45 16 C45 16.66 45 17.32 45 18 C44.01 18.66 43.02 19.32 42 20 C43.32 20.33 44.64 20.66 46 21 C45.625 22.9375 45.625 22.9375 45 25 C42.27157939 26.36421031 40.39046682 25.87807211 37.375 25.5625 C36.37210937 25.46066406 35.36921875 25.35882813 34.3359375 25.25390625 C33.56507813 25.17011719 32.79421875 25.08632813 32 25 C33.134375 25.45375 34.26875 25.9075 35.4375 26.375 C39 28 39 28 40 30 C36.84206729 30.07518887 34.04171961 30.00851421 30.9375 29.375 C27.61869181 28.95132236 25.95434675 29.52282662 23 31 C25.89186786 32.33304698 25.89186786 32.33304698 28.1875 31.0625 C28.785625 30.711875 29.38375 30.36125 30 30 C30.12375 30.969375 30.2475 31.93875 30.375 32.9375 C30.684375 34.4534375 30.684375 34.4534375 31 36 C31.66 36.33 32.32 36.66 33 37 C33.04125 36.38125 33.0825 35.7625 33.125 35.125 C34 33 34 33 36.6875 31.8125 C39.78515133 31.05269873 42.84337247 30.45094679 46 30 C45.49396008 32.16874252 45.00016187 33.99967627 44 36 C44.99 36.33 45.98 36.66 47 37 C46.01 37.495 46.01 37.495 45 38 C45.66 38.33 46.32 38.66 47 39 C46.03307342 41.7249749 45.45441592 42.77928369 42.8125 44.0625 C38.58895753 43.9686435 36.1612402 41.63284847 33 39 C32.67 39.33 32.34 39.66 32 40 C32.804375 40.474375 33.60875 40.94875 34.4375 41.4375 C37 43 37 43 38 44 C38.04080783 45.99958364 38.04254356 48.00045254 38 50 C29.86265342 49.65225015 29.86265342 49.65225015 26.4375 47.0625 C25 45 25 45 25 43 C20.1578998 43.89510088 20.1578998 43.89510088 16.5 46.875 C15.89497198 49.4463691 15.93920596 50.57532792 17 53 C18.00312729 53.75579346 18.00312729 53.75579346 19.02651978 54.52685547 C22.04490693 58.3094663 21.52505916 61.86592174 21.45068359 66.5703125 C21.45138351 67.53982849 21.45208344 68.50934448 21.45280457 69.50823975 C21.45208741 71.61226435 21.44236723 73.71630071 21.42472458 75.82025146 C21.39824781 79.14884757 21.39813549 82.47649307 21.40542603 85.80517578 C21.42110446 95.26805515 21.38664607 104.73060486 21.33984375 114.19335938 C21.31303581 119.98177093 21.31510463 125.76961246 21.33430862 131.55804443 C21.33539256 133.76530404 21.32489333 135.97260039 21.30268478 138.17974854 C21.27175072 141.26370817 21.2771526 144.34564812 21.29052734 147.4296875 C21.27202225 148.34409607 21.25351715 149.25850464 21.23445129 150.20062256 C21.16948151 154.73968603 21.16948151 154.73968603 23.3832283 158.47711182 C25.19448872 159.76000191 25.19448872 159.76000191 28 161 C28 159.68 28 158.36 28 157 C28.66 157 29.32 157 30 157 C30 158.65 30 160.3 30 162 C29.34 162 28.68 162 28 162 C28 162.66 28 163.32 28 164 C28.57903076 163.61618164 29.15806152 163.23236328 29.75463867 162.83691406 C36.34676884 158.65320932 42.87820828 156.05735311 50.3125 153.75 C52.41311571 153.07923666 54.51338918 152.40740035 56.61328125 151.734375 C57.98673706 151.30463379 57.98673706 151.30463379 59.38793945 150.86621094 C61.97269405 150.00905519 64.48283173 149.03743353 67 148 C68 149 68 149 68.4375 152.125 C67.85073849 157.32203056 65.91639106 159.65790661 62 163 C59.1003036 164.89807416 56.11527821 166.48767403 53 168 C51.96746094 168.56267578 51.96746094 168.56267578 50.9140625 169.13671875 C49 170 49 170 46 170 C46.93103324 172.32758311 47.65382128 173.74357132 49.6875 175.25 C55.81040453 177.23580687 61.41099887 175.83998069 67 173 C78.56091787 165.99510888 87.90007841 156.74643063 96 146 C96.77537109 144.98292969 96.77537109 144.98292969 97.56640625 143.9453125 C103.41644774 135.52823788 104.28929881 125.06985775 105.375 115.12890625 C106.03119461 111.84383198 107.11379741 109.74216952 109 107 C112.49107379 108.16369126 112.85222763 108.88973538 114.6875 111.9375 C115.12449219 112.64777344 115.56148437 113.35804688 116.01171875 114.08984375 C117 116 117 116 117 118 C117.66 118 118.32 118 119 118 C117.89680214 136.38663104 107.41225301 153.16407453 96 167 C95.47664062 167.67675781 94.95328125 168.35351562 94.4140625 169.05078125 C79.34167549 188.00016955 54.13127212 199.25990082 30.8671875 203.58203125 C14.47384042 205.35383745 -2.22156857 204.96883519 -18 200 C-19.0209375 199.68651611 -19.0209375 199.68651611 -20.0625 199.36669922 C-35.1785977 194.58923936 -48.22474151 186.58846079 -60 176 C-60.76699219 175.31550781 -61.53398438 174.63101563 -62.32421875 173.92578125 C-75.56912949 161.42055139 -89.30481445 140.983178 -91.2734375 122.421875 C-90.93805334 119.45132956 -90.02161849 118.2197945 -88.125 115.9375 C-86.46516606 113.91282334 -85.09175773 112.19880841 -83.9921875 109.81640625 C-83 108 -83 108 -80 107 C-76.08073999 112.25463115 -75.97924547 118.03565109 -75.27148438 124.34375 C-73.14117742 140.9828339 -61.72798163 154.79159151 -49.19921875 165.36328125 C-41.24562757 171.33691197 -33.29623902 177.24264954 -23 176 C-20.07621471 175.07669938 -19.30552932 174.51939985 -17.75 171.875 C-17.5025 171.25625 -17.255 170.6375 -17 170 C-17.66 169.9175 -18.32 169.835 -19 169.75 C-27.14072416 167.71481896 -34.32996263 163.00505606 -39 156 C-39.07905064 153.66800612 -39.08798769 151.33167378 -39 149 C-34.70222534 149.61115144 -30.81937484 150.6278435 -26.7265625 152.06640625 C-25.57285156 152.46923828 -24.41914062 152.87207031 -23.23046875 153.28710938 C-22.04066406 153.70798828 -20.85085937 154.12886719 -19.625 154.5625 C-18.41199219 154.98724609 -17.19898437 155.41199219 -15.94921875 155.84960938 C-12.96459246 156.89540363 -9.98161764 157.94566493 -7 159 C-6.01 158.01 -5.02 157.02 -4 156 C-4 156.99 -4 157.98 -4 159 C-2.02 158.67 -0.04 158.34 2 158 C1.99476318 157.11965088 1.98952637 156.23930176 1.98413086 155.33227539 C1.81727622 123.02372488 1.81727622 123.02372488 3 109 C-0.96 109 -4.92 109 -9 109 C-8.97381592 110.03406982 -8.94763184 111.06813965 -8.9206543 112.13354492 C-8.82993577 115.98179359 -8.77267341 119.8299484 -8.7253418 123.67895508 C-8.70024653 125.34252839 -8.66616204 127.00599196 -8.62280273 128.66918945 C-8.5619254 131.06489153 -8.53374231 133.45913251 -8.51171875 135.85546875 C-8.48591232 136.5952446 -8.4601059 137.33502045 -8.43351746 138.09721375 C-8.43135198 142.11301249 -8.84090311 143.80323334 -11.39941406 146.9675293 C-13.93434297 148.94868618 -14.91864086 149.68750217 -18.0625 149.625 C-22 149 -22 149 -24.2127533 146.99633789 C-26.5226207 143.1238209 -26.56931298 139.81402616 -26.53344727 135.43359375 C-26.54637062 134.15707443 -26.54637062 134.15707443 -26.55955505 132.85476685 C-26.5822119 130.04869967 -26.57547725 127.24363133 -26.56640625 124.4375 C-26.57164169 122.48363956 -26.57791788 120.52978166 -26.58518982 118.57592773 C-26.59559329 114.48376561 -26.59103286 110.39195124 -26.57641602 106.29980469 C-26.55922183 101.05710454 -26.58273164 95.81549969 -26.61790562 90.57292175 C-26.63987015 86.53911077 -26.63844053 82.5055623 -26.6301403 78.47171021 C-26.62932039 76.53881631 -26.63619141 74.60590321 -26.65091133 72.67306519 C-26.66834145 69.97016115 -26.65382883 67.26923102 -26.63110352 64.56640625 C-26.64864182 63.37085617 -26.64864182 63.37085617 -26.66653442 62.15115356 C-26.5974601 58.11119878 -26.19975507 56.24786153 -23.63243103 53.06225586 C-21 51 -21 51 -18.25 49.4375 C-15.82720174 48.20776413 -15.82720174 48.20776413 -15.1875 45.8125 C-15.125625 45.214375 -15.06375 44.61625 -15 44 C-16.65 44 -18.3 44 -20 44 C-20 43.01 -20 42.02 -20 41 C-16.77208445 38.8480563 -15.71599191 38.79913557 -12 39 C-12.74324341 36.60510457 -13.47057354 35.29222384 -15.69140625 34.06640625 C-17.44073501 33.32780077 -19.21934149 32.65950315 -21 32 C-21 30.02 -21 28.04 -21 26 C-20.01 26.99 -19.02 27.98 -18 29 C-18 26.69 -18 24.38 -18 22 C-17.01 22 -16.02 22 -15 22 C-15.495 18.535 -15.495 18.535 -16 15 C-15.401875 15.33 -14.80375 15.66 -14.1875 16 C-11.94613529 17.20787988 -11.94613529 17.20787988 -9 17 C-9.99 15.35 -10.98 13.7 -12 12 C-8.64404172 12.59927826 -6.62198774 13.84622436 -4 16 C-3.67 14.02 -3.34 12.04 -3 10 C-0.39417629 9.06934867 0.64198224 8.85082593 3.25 9.9375 C3.8275 10.288125 4.405 10.63875 5 11 C5 10.01 5 9.02 5 8 C3.68 7.67 2.36 7.34 1 7 C0.505 3.535 0.505 3.535 0 0 Z " fill="#EBCB26" transform="translate(117,33)"/>
<path d="M0 0 C3 2 3 2 3.87890625 4.8359375 C4.10449219 6.00382813 4.33007812 7.17171875 4.5625 8.375 C4.81257813 9.633125 5.06265625 10.89125 5.3203125 12.1875 C5.92472118 15.5777464 6.44203808 18.96761274 6.9375 22.375 C8.46130187 31.65298719 13.04209508 37.89996706 19 45 C19.69351563 45.82886719 20.38703125 46.65773437 21.1015625 47.51171875 C29.20451658 56.86017991 39.72585593 67.12588903 52.3984375 69.4375 C55.9628232 69.54350404 59.14148638 69.19885663 62 67 C63.26804566 64.9664052 63.26804566 64.9664052 64 63 C63.34 62.9175 62.68 62.835 62 62.75 C53.85927584 60.71481896 46.67003737 56.00505606 42 49 C41.92094936 46.66800612 41.91201231 44.33167378 42 42 C48.55969758 42.95869221 54.55880611 45.04447871 60.8125 47.1875 C61.95009766 47.56197266 63.08769531 47.93644531 64.25976562 48.32226562 C75.70316647 52.23798213 84.9836724 57.61471865 91.3203125 68.20703125 C94.81289724 75.5707676 94.38223358 83.03680048 94 91 C94.99 91 95.98 91 97 91 C96.94199219 89.96101563 96.88398438 88.92203125 96.82421875 87.8515625 C96.38565793 76.68234379 98.11151033 69.67044196 105.1875 60.75 C112.38285283 53.18299898 121.5325773 49.78535776 131.3125 46.75 C133.41311571 46.07923666 135.51338918 45.40740035 137.61328125 44.734375 C138.52891846 44.44788086 139.44455566 44.16138672 140.38793945 43.86621094 C142.97269405 43.00905519 145.48283173 42.03743353 148 41 C149 42 149 42 149.4375 45.125 C148.85073849 50.32203056 146.91639106 52.65790661 143 56 C140.1003036 57.89807416 137.11527821 59.48767403 134 61 C133.31164062 61.37511719 132.62328125 61.75023437 131.9140625 62.13671875 C130 63 130 63 127 63 C127.93103324 65.32758311 128.65382128 66.74357132 130.6875 68.25 C136.81040453 70.23580687 142.41099887 68.83998069 148 66 C159.56091787 58.99510888 168.90007841 49.74643063 177 39 C177.77537109 37.98292969 177.77537109 37.98292969 178.56640625 36.9453125 C184.41644774 28.52823788 185.28929881 18.06985775 186.375 8.12890625 C187.03119461 4.84383198 188.11379741 2.74216952 190 0 C193.49107379 1.16369126 193.85222763 1.88973538 195.6875 4.9375 C196.12449219 5.64777344 196.56148437 6.35804688 197.01171875 7.08984375 C198 9 198 9 198 11 C198.66 11 199.32 11 200 11 C198.89680214 29.38663104 188.41225301 46.16407453 177 60 C176.47664062 60.67675781 175.95328125 61.35351562 175.4140625 62.05078125 C160.34167549 81.00016955 135.13127212 92.25990082 111.8671875 96.58203125 C95.47384042 98.35383745 78.77843143 97.96883519 63 93 C62.319375 92.79101074 61.63875 92.58202148 60.9375 92.36669922 C45.8214023 87.58923936 32.77525849 79.58846079 21 69 C20.23300781 68.31550781 19.46601562 67.63101563 18.67578125 66.92578125 C5.43087051 54.42055139 -8.30481445 33.983178 -10.2734375 15.421875 C-9.93805334 12.45132956 -9.02161849 11.2197945 -7.125 8.9375 C-5.4721417 6.92133227 -4.07926775 5.16171779 -2.9296875 2.81640625 C-2 1 -2 1 0 0 Z " fill="#FCFDFD" transform="translate(36,140)"/>
<path d="M0 0 C0.845625 0.144375 1.69125 0.28875 2.5625 0.4375 C2.8821875 1.25863281 3.201875 2.07976562 3.53125 2.92578125 C5.27384924 5.6250149 5.27384924 5.6250149 7.79516602 5.89379883 C10.74558102 6.05021841 13.67048382 6.08475624 16.625 6.0625 C25.77172525 6.0625 33.99487468 6.50732526 41.875 11.5625 C47.15310328 17.20884304 49.85455995 22.02316383 50.1875 29.875 C49.86274329 37.19057224 47.96023955 43.14251467 42.625 48.31640625 C36.89051987 52.82362075 32.09392199 54.69768874 24.73046875 54.6328125 C23.56539795 54.62781738 22.40032715 54.62282227 21.19995117 54.61767578 C18.99722534 54.59036377 18.99722534 54.59036377 16.75 54.5625 C9.7271875 54.500625 9.7271875 54.500625 2.5625 54.4375 C2.5625 38.5975 2.5625 22.7575 2.5625 6.4375 C1.5725 6.1075 0.5825 5.7775 -0.4375 5.4375 C-0.7675 6.0975 -1.0975 6.7575 -1.4375 7.4375 C-2.4275 7.4375 -3.4175 7.4375 -4.4375 7.4375 C-4.5625 5.0625 -4.5625 5.0625 -4.4375 2.4375 C-2.4375 0.4375 -2.4375 0.4375 0 0 Z " fill="#EBCB26" transform="translate(138.4375,77.5625)"/>
<path d="M0 0 C16.43103137 -0.44460438 32.5525005 2.53358501 47.9453125 8.16015625 C49.47478516 8.69576172 49.47478516 8.69576172 51.03515625 9.2421875 C79.13710885 19.91715741 103.44937557 43.85648449 116.01904297 71.01416016 C123.2651307 87.80201234 127.91805823 105.78607018 126.9453125 124.16015625 C125.2953125 124.16015625 123.6453125 124.16015625 121.9453125 124.16015625 C121.79835937 122.39865234 121.79835937 122.39865234 121.6484375 120.6015625 C119.13150717 92.63436923 110.76488832 67.49860455 91.9453125 46.16015625 C91.44644531 45.52980469 90.94757813 44.89945313 90.43359375 44.25 C78.92152351 29.76920105 61.00572604 19.62809052 43.9453125 13.16015625 C42.38103516 12.56074219 42.38103516 12.56074219 40.78515625 11.94921875 C11.71431724 1.97135659 -20.78726415 4.92472562 -48.21337891 18.23681641 C-76.71824316 32.53082285 -98.17267407 57.14496316 -108.21264648 87.34667969 C-111.48067635 97.64932363 -113.173576 107.62781407 -113.80859375 118.41015625 C-114.0546875 121.16015625 -114.0546875 121.16015625 -115.0546875 124.16015625 C-116.7046875 124.16015625 -118.3546875 124.16015625 -120.0546875 124.16015625 C-119.28673048 94.17143463 -110.41973811 65.75263427 -90.0546875 43.16015625 C-88.971875 41.84724609 -88.971875 41.84724609 -87.8671875 40.5078125 C-68.15016894 17.29368761 -38.55854816 3.70451315 -8.5546875 0.47265625 C-5.70435522 0.27850318 -2.85299508 0.14958158 0 0 Z " fill="#0D577F" transform="translate(128.0546875,4.83984375)"/>
<path d="M0 0 C5.90815343 -0.09890033 11.81582472 -0.17148371 17.72460938 -0.21972656 C19.73446038 -0.23983805 21.74425291 -0.26713115 23.75390625 -0.30175781 C26.64337596 -0.35029634 29.53207191 -0.37297322 32.421875 -0.390625 C33.31992859 -0.41127014 34.21798218 -0.43191528 35.14324951 -0.45318604 C41.35106121 -0.4554173 41.35106121 -0.4554173 44.56738281 1.80175781 C46.66531434 5.02087429 46.5452832 7.25117801 46 11 C43.86536366 13.12272295 42.52239785 13.92807491 39.52636719 14.34057617 C38.62563477 14.32486572 37.72490234 14.30915527 36.796875 14.29296875 C35.32734375 14.2784668 35.32734375 14.2784668 33.828125 14.26367188 C32.30445313 14.2259668 32.30445313 14.2259668 30.75 14.1875 C29.71875 14.17396484 28.6875 14.16042969 27.625 14.14648438 C25.08280208 14.11117607 22.54166777 14.06186036 20 14 C20 14.66 20 15.32 20 16 C20.64549805 15.98428955 21.29099609 15.9685791 21.95605469 15.95239258 C24.88728029 15.88994198 27.81836579 15.8509777 30.75 15.8125 C31.76578125 15.78736328 32.7815625 15.76222656 33.828125 15.73632812 C34.8078125 15.72666016 35.7875 15.71699219 36.796875 15.70703125 C37.69760742 15.6913208 38.59833984 15.67561035 39.52636719 15.65942383 C42.52239785 16.07192509 43.86536366 16.87727705 46 19 C46.53824001 22.7004001 46.62326243 24.96428449 44.671875 28.20703125 C40.34124729 31.11311037 35.82994486 30.41761239 30.75 30.25 C29.71875 30.23195312 28.6875 30.21390625 27.625 30.1953125 C25.08238936 30.14822712 22.54166838 30.0824805 20 30 C20.05800781 30.80824219 20.11601562 31.61648437 20.17578125 32.44921875 C20.54796167 41.26457776 20.54796167 41.26457776 17.625 45.1875 C13.48413501 48.04666868 11.09148586 48.51777822 6 48 C3.125 45.5625 3.125 45.5625 1 43 C0.67 42.67 0.34 42.34 0 42 C-0.08874135 38.89748799 -0.11518455 35.8173188 -0.09765625 32.71484375 C-0.0962413 31.78402481 -0.09482635 30.85320587 -0.09336853 29.8941803 C-0.08775172 26.90858809 -0.0751964 23.92306971 -0.0625 20.9375 C-0.05748716 18.91862087 -0.05292388 16.89974057 -0.04882812 14.88085938 C-0.03777683 9.92054428 -0.02050095 4.96028468 0 0 Z " fill="#E7C829" transform="translate(140,133)"/>
<path d="M0 0 C2.375 1.375 2.375 1.375 4 4 C4.51340378 8.82310316 4.53951361 13.38145916 3 18 C2.34 18 1.68 18 1 18 C1 17.01 1 16.02 1 15 C-3.29 14.67 -7.58 14.34 -12 14 C-12 15.32 -12 16.64 -12 18 C-11.24074219 18.20496094 -10.48148438 18.40992188 -9.69921875 18.62109375 C-8.70535156 18.89050781 -7.71148437 19.15992188 -6.6875 19.4375 C-5.70136719 19.70433594 -4.71523437 19.97117188 -3.69921875 20.24609375 C-1.78482474 20.78079425 0.11433615 21.37144538 2 22 C1 25 1 25 -1.25 26.1328125 C-2.1575 26.46023437 -3.065 26.78765625 -4 27.125 C-7.25851266 28.13739943 -7.25851266 28.13739943 -10 30 C-7.03 30.33 -4.06 30.66 -1 31 C-1.66 32.98 -2.32 34.96 -3 37 C-3.66 37 -4.32 37 -5 37 C-5.43957031 36.53980469 -5.87914062 36.07960937 -6.33203125 35.60546875 C-8.34594573 33.66701711 -10.02818631 33.12185634 -12.6875 32.3125 C-13.89986328 31.93544922 -13.89986328 31.93544922 -15.13671875 31.55078125 C-15.75160156 31.36902344 -16.36648437 31.18726563 -17 31 C-16.63507846 33.67419068 -16.334081 34.7328792 -14.1875 36.44921875 C-13.465625 36.85785156 -12.74375 37.26648438 -12 37.6875 C-8.01265823 39.98734177 -8.01265823 39.98734177 -7 41 C-6.71448968 44.2119911 -6.73712243 46.4123913 -8.0625 49.375 C-10 51 -10 51 -13.3125 51.4375 C-17.1757842 50.97914425 -19.66445188 49.95251597 -23 48 C-23.495 48.495 -23.495 48.495 -24 49 C-23.175 49.78375 -22.35 50.5675 -21.5 51.375 C-19 54 -19 54 -19 56 C-19.99 56 -20.98 56 -22 56 C-22 56.99 -22 57.98 -22 59 C-20.02 59.33 -18.04 59.66 -16 60 C-17.47692308 64.67692308 -17.47692308 64.67692308 -20.125 66.3125 C-20.74375 66.539375 -21.3625 66.76625 -22 67 C-21.67 66.01 -21.34 65.02 -21 64 C-21.7425 63.731875 -22.485 63.46375 -23.25 63.1875 C-26 62 -26 62 -28.0625 60.375 C-30.14770106 58.61416866 -30.14770106 58.61416866 -34 59 C-33.35125544 55.24083632 -31.63573185 52.6055362 -29.5625 49.4375 C-28.94503906 48.48746094 -28.32757813 47.53742188 -27.69140625 46.55859375 C-26.46483036 44.70314985 -25.23377601 42.85066401 -24 41 C-23.34 41 -22.68 41 -22 41 C-22 41.99 -22 42.98 -22 44 C-18.00999834 45.42500059 -14.19469571 46.40075776 -10 47 C-10 45.35 -10 43.7 -10 42 C-15.54702838 38.38406443 -15.54702838 38.38406443 -22 38 C-19.6122449 30.10204082 -19.6122449 30.10204082 -17 27 C-13.75574073 25.39097319 -10.43029885 24.15201406 -7 23 C-11.43093198 21.18698242 -11.43093198 21.18698242 -16 22 C-15.4082517 19.08030787 -14.80221445 16.16486413 -14.1875 13.25 C-14.02185547 12.425 -13.85621094 11.6 -13.68554688 10.75 C-12.00231694 2.87375425 -12.00231694 2.87375425 -9 0 C-5.41563853 -1.19478716 -3.63093708 -0.96330984 0 0 Z M-8.6875 4.25 C-10.13430749 6.17907665 -10.48534374 7.67202217 -11 10 C-9.02206479 10.36098063 -7.04260427 10.71361348 -5.0625 11.0625 C-3.96035156 11.25972656 -2.85820312 11.45695313 -1.72265625 11.66015625 C-0.82417969 11.77230469 0.07429688 11.88445312 1 12 C2.24660324 10.94945399 2.24660324 10.94945399 2.375 8.625 C2.27606403 5.8005443 2.27606403 5.8005443 -0.25 4.1875 C-3.39455649 2.82962333 -5.75826143 2.08019365 -8.6875 4.25 Z M-27 51 C-27.66 52.32 -28.32 53.64 -29 55 C-27.02 55.99 -27.02 55.99 -25 57 C-24.34 56.01 -23.68 55.02 -23 54 C-23.66 53.01 -24.32 52.02 -25 51 C-25.66 51 -26.32 51 -27 51 Z " fill="#000000" transform="translate(256,145)"/>
<path d="M0 0 C2.22189824 2.22189824 2.92598892 4.08482708 4 7 C4.99 6.67 5.98 6.34 7 6 C7.99 6.33 8.98 6.66 10 7 C10.33 4.69 10.66 2.38 11 0 C12.32 1.32 13.64 2.64 15 4 C13.79618552 6.49361571 12.54571278 8.68143083 11 11 C10.75902313 13.82437444 10.6270868 16.55877174 10.5859375 19.38671875 C10.56657135 20.20372757 10.5472052 21.02073639 10.5272522 21.86250305 C10.46749648 24.47072934 10.42108742 27.07899986 10.375 29.6875 C10.3368165 31.4563994 10.29776454 33.22528028 10.2578125 34.99414062 C10.16179832 39.32927659 10.07775265 43.6644996 10 48 C6.04 48 2.08 48 -2 48 C-2.01401855 46.3125769 -2.01401855 46.3125769 -2.02832031 44.59106445 C-2.06827255 40.40674631 -2.13404552 36.22315937 -2.20751953 32.03930664 C-2.23569889 30.23048311 -2.25692855 28.42153714 -2.27099609 26.61254883 C-2.29246814 24.00799006 -2.33913811 21.40489866 -2.390625 18.80078125 C-2.39185364 17.99538406 -2.39308228 17.18998688 -2.39434814 16.36018372 C-2.52503743 11.32040298 -3.26963518 8.7076187 -7 5 C-6.34 5 -5.68 5 -5 5 C-4.34 3.68 -3.68 2.36 -3 1 C-2.34 1.66 -1.68 2.32 -1 3 C-0.67 2.01 -0.34 1.02 0 0 Z " fill="#195B7D" transform="translate(110,79)"/>
<path d="M0 0 C3.24271506 0.5590888 4.93057424 1.4132178 7 4 C7 4.66 7 5.32 7 6 C7.66 6 8.32 6 9 6 C9.33 6.99 9.66 7.98 10 9 C9.34 9 8.68 9 8 9 C7.67 11.31 7.34 13.62 7 16 C7.66 16.33 8.32 16.66 9 17 C8.67 18.65 8.34 20.3 8 22 C9.32 21.67 10.64 21.34 12 21 C12 18.36 12 15.72 12 13 C14.76222843 15.38556092 15.98658817 17.49203597 17 21 C17.15512216 23.69212002 17.09156216 26.29891626 17 29 C16.01 29.33 15.02 29.66 14 30 C11.8125 28.5625 11.8125 28.5625 10 27 C9.34 27.99 8.68 28.98 8 30 C10.64 30.99 13.28 31.98 16 33 C16 35.64 16 38.28 16 41 C14.68 41 13.36 41 12 41 C10.515 41.495 10.515 41.495 9 42 C8.01 40.02 7.02 38.04 6 36 C5.01 36.66 4.02 37.32 3 38 C1.9375 35.625 1.9375 35.625 1 33 C1.33 32.34 1.66 31.68 2 31 C-2.95 31.495 -2.95 31.495 -8 32 C-8 31.01 -8 30.02 -8 29 C-4.77208445 26.8480563 -3.71599191 26.79913557 0 27 C-0.74324341 24.60510457 -1.47057354 23.29222384 -3.69140625 22.06640625 C-5.44073501 21.32780077 -7.21934149 20.65950315 -9 20 C-9 18.02 -9 16.04 -9 14 C-8.01 14.99 -7.02 15.98 -6 17 C-6 14.69 -6 12.38 -6 10 C-5.01 10 -4.02 10 -3 10 C-3.33 7.69 -3.66 5.38 -4 3 C-3.401875 3.33 -2.80375 3.66 -2.1875 4 C0.05386471 5.20787988 0.05386471 5.20787988 3 5 C2.01 3.35 1.02 1.7 0 0 Z " fill="#EBCB27" transform="translate(105,45)"/>
<path d="M0 0 C0.66 0 1.32 0 2 0 C2.33 2.64 2.66 5.28 3 8 C2.34 8 1.68 8 1 8 C1 7.34 1 6.68 1 6 C-0.65 6.33 -2.3 6.66 -4 7 C-3.67 9.31 -3.34 11.62 -3 14 C-1.35 13.67 0.3 13.34 2 13 C2 12.34 2 11.68 2 11 C2.66 11 3.32 11 4 11 C4.6700834 13.12392506 5.33596797 15.24917524 6 17.375 C6.37125 18.55835938 6.7425 19.74171875 7.125 20.9609375 C8 24 8 24 8 26 C7.42636719 25.80921875 6.85273438 25.6184375 6.26171875 25.421875 C3.61406147 24.92801147 2.30730975 25.29513848 -0.1875 26.25 C-0.88230469 26.50265625 -1.57710937 26.7553125 -2.29296875 27.015625 C-4.35271653 27.95171981 -4.35271653 27.95171981 -5 31 C-4.34 31.99 -3.68 32.98 -3 34 C0.3 33.01 3.6 32.02 7 31 C7 30.34 7 29.68 7 29 C10 30 10 30 11.75 33.25 C13.47126437 38.4137931 13.47126437 38.4137931 12 42 C10.44510753 44.1411634 8.78394102 46.03309067 7 48 C10.96 48 14.92 48 19 48 C19.66 49.65 20.32 51.3 21 53 C20.113125 53.103125 19.22625 53.20625 18.3125 53.3125 C14.92907415 54.01472046 12.88053577 55.1596577 10 57 C9.34 57 8.68 57 8 57 C8 57.99 8 58.98 8 60 C6.0625 59.3125 6.0625 59.3125 4 58 C3.25 55.375 3.25 55.375 3 53 C3.969375 52.855625 4.93875 52.71125 5.9375 52.5625 C8.86486773 52.32437659 8.86486773 52.32437659 10 51 C7.03 51 4.06 51 1 51 C2.12451727 48.0280615 3.22293791 45.66559313 5 43 C2.84526801 44.5801368 0.89353366 46.10646634 -1 48 C-4 43.25 -4 43.25 -4 41 C-2.9275 40.87625 -1.855 40.7525 -0.75 40.625 C2.44491044 40.09251493 4.23439759 39.48157272 7 38 C7.99 38 8.98 38 10 38 C9.67 37.01 9.34 36.02 9 35 C8.41992188 35.15597656 7.83984375 35.31195313 7.2421875 35.47265625 C2.52187652 36.64883935 -1.2049047 37.40344253 -6 36 C-8 34 -8 34 -8.375 30.0625 C-8.25306315 26.31632893 -8.25306315 26.31632893 -6.5 24.125 C-3.06224996 22.57801248 0.31399489 21.79863444 4 21 C3.67 20.01 3.34 19.02 3 18 C-3.435 18.495 -3.435 18.495 -10 19 C-10 19.66 -10 20.32 -10 21 C-10.66 21 -11.32 21 -12 21 C-12.33 18.69 -12.66 16.38 -13 14 C-12.34 13.67 -11.68 13.34 -11 13 C-11 13.66 -11 14.32 -11 15 C-9.35 14.67 -7.7 14.34 -6 14 C-6 12.02 -6 10.04 -6 8 C-8.47266765 8.34444881 -8.47266765 8.34444881 -11 9 C-11.33 9.66 -11.66 10.32 -12 11 C-12.66 11 -13.32 11 -14 11 C-14.33 8.36 -14.66 5.72 -15 3 C-14.34 3 -13.68 3 -13 3 C-13 3.66 -13 4.32 -13 5 C-12.39671875 4.855625 -11.7934375 4.71125 -11.171875 4.5625 C-10.37265625 4.376875 -9.5734375 4.19125 -8.75 4 C-7.56664062 3.7215625 -7.56664062 3.7215625 -6.359375 3.4375 C-4 3 -4 3 0 3 C0 2.01 0 1.02 0 0 Z " fill="#000000" transform="translate(15,146)"/>
<path d="M0 0 C1.875 0.3125 1.875 0.3125 4 1 C4.66 1.99 5.32 2.98 6 4 C6.99 3.01 7.98 2.02 9 1 C11.475 1.99 11.475 1.99 14 3 C13.67 4.98 13.34 6.96 13 9 C12.01 9.33 11.02 9.66 10 10 C10.33 10.66 10.66 11.32 11 12 C11.66 12 12.32 12 13 12 C15.12046792 8.46588679 15.53199289 5.05606165 16 1 C16.99 1 17.98 1 19 1 C21 3 21 3 21.08203125 4.8125 C20.36278185 10.64988643 19.39293827 16.5903233 17 22 C14 24 14 24 13 24 C13.03480469 24.58007812 13.06960937 25.16015625 13.10546875 25.7578125 C13.28744524 31.009134 12.83377711 34.39511219 10 39 C9.34 38.34 8.68 37.68 8 37 C8.66 37 9.32 37 10 37 C10 34.03 10 31.06 10 28 C8.68 29.32 7.36 30.64 6 32 C4.85185003 29.70370006 4.69230191 27.92301914 4.4375 25.375 C4.35371094 24.55773437 4.26992187 23.74046875 4.18359375 22.8984375 C4.12300781 22.27195312 4.06242187 21.64546875 4 21 C3.34 21.66 2.68 22.32 2 23 C1.34 22.67 0.68 22.34 0 22 C0.28875 21.484375 0.5775 20.96875 0.875 20.4375 C2.2889538 17.37393343 3.11319111 14.2516326 4 11 C4.33 10.01 4.66 9.02 5 8 C3.68 7.67 2.36 7.34 1 7 C0.67 4.69 0.34 2.38 0 0 Z " fill="#707E6E" transform="translate(117,33)"/>
<path d="M0 0 C4.40958108 0.66607439 8.26572186 2.26624729 12.3125 4.0625 C13.28026367 4.48499023 13.28026367 4.48499023 14.26757812 4.91601562 C15.84698358 5.6062743 17.42376493 6.30253198 19 7 C19 7.66 19 8.32 19 9 C18.34 9 17.68 9 17 9 C17.33 11.64 17.66 14.28 18 17 C21.50177065 13.15096452 21.50177065 13.15096452 22 8 C24.62571335 8.47549934 27.2505304 8.95522567 29.875 9.4375 C30.62136719 9.57220703 31.36773437 9.70691406 32.13671875 9.84570312 C37.7734375 10.88671875 37.7734375 10.88671875 40 12 C39.32829194 15.8063457 38.27253436 19.35206816 37 23 C36.34 23 35.68 23 35 23 C35 22.01 35 21.02 35 20 C34.01 20 33.02 20 32 20 C32 21.65 32 23.3 32 25 C35.60992379 24.34414811 35.60992379 24.34414811 39 23 C38.67 24.98 38.34 26.96 38 29 C33.71 28.34 29.42 27.68 25 27 C25 26.34 25 25.68 25 25 C25.66 24.67 26.32 24.34 27 24 C27.69227032 21.19019327 27.69227032 21.19019327 28.125 17.9375 C28.29257813 16.83277344 28.46015625 15.72804687 28.6328125 14.58984375 C28.81457031 13.30787109 28.81457031 13.30787109 29 12 C27.68 12 26.36 12 25 12 C24.7421875 12.57234375 24.484375 13.1446875 24.21875 13.734375 C22.88634058 16.21128995 21.34943882 18.1341166 19.5 20.25 C18.58734375 21.30960937 18.58734375 21.30960937 17.65625 22.390625 C16 24 16 24 14 24 C13.34 18.39 12.68 12.78 12 7 C9.49183541 9.50816459 8.38589981 10.90837736 7 14 C6.34 14 5.68 14 5 14 C4.67 13.34 4.34 12.68 4 12 C3.34 12 2.68 12 2 12 C1.34 13.32 0.68 14.64 0 16 C2.64 16 5.28 16 8 16 C7.34 17.32 6.68 18.64 6 20 C1.61110675 19.33501617 -1.9811485 17.81242323 -6 16 C-6 15.34 -6 14.68 -6 14 C-5.01 14 -4.02 14 -3 14 C-2.49440092 12.56445975 -1.9957251 11.1264798 -1.5 9.6875 C-1.2215625 8.88699219 -0.943125 8.08648437 -0.65625 7.26171875 C0.13933107 4.91230578 0.13933107 4.91230578 0 2 C0 1.34 0 0.68 0 0 Z M5 4 C4.34 5.65 3.68 7.3 3 9 C6 10.33333333 6 10.33333333 9 9 C8.73323796 7.01508358 8.73323796 7.01508358 8 5 C7.01 4.67 6.02 4.34 5 4 Z M33 13 C32.67 14.65 32.34 16.3 32 18 C33.98 17.67 35.96 17.34 38 17 C37.34 15.68 36.68 14.36 36 13 C35.01 13 34.02 13 33 13 Z " fill="#000000" transform="translate(77,235)"/>
<path d="M0 0 C0 1.98 0 3.96 0 6 C1.98 6 3.96 6 6 6 C5.25 7.9375 5.25 7.9375 4 10 C1.875 10.75 1.875 10.75 0 11 C3.53411321 13.12046792 6.94393835 13.53199289 11 14 C11 14.66 11 15.32 11 16 C10.01 16.66 9.02 17.32 8 18 C9.32 18.33 10.64 18.66 12 19 C11.625 20.9375 11.625 20.9375 11 23 C8.27157939 24.36421031 6.39046682 23.87807211 3.375 23.5625 C2.37210938 23.46066406 1.36921875 23.35882813 0.3359375 23.25390625 C-0.43492187 23.17011719 -1.20578125 23.08632813 -2 23 C-0.2984375 23.680625 -0.2984375 23.680625 1.4375 24.375 C5 26 5 26 6 28 C1.78121808 28.19622241 -1.17010894 27.80230168 -5 26 C-5 25.34 -5 24.68 -5 24 C-7.49361571 25.20381448 -9.68143083 26.45428722 -12 28 C-12.99 27.67 -13.98 27.34 -15 27 C-14.01 26.34 -13.02 25.68 -12 25 C-11.26656572 21.93443402 -11.26656572 21.93443402 -11 19 C-12.98 20.65 -14.96 22.3 -17 24 C-16.70820766 20.49849196 -16.21713533 19.21713533 -13.6875 16.6875 C-11 15 -11 15 -7 15 C-7.66 14.34 -8.32 13.68 -9 13 C-8.75 11.25 -8.75 11.25 -8 9 C-7.71125 7.989375 -7.4225 6.97875 -7.125 5.9375 C-5.53065457 1.77448692 -4.58942725 0 0 0 Z " fill="#888B66" transform="translate(151,35)"/>
<path d="M0 0 C0.51304687 0.39703125 1.02609375 0.7940625 1.5546875 1.203125 C1.5546875 1.863125 1.5546875 2.523125 1.5546875 3.203125 C-0.0953125 3.203125 -1.7453125 3.203125 -3.4453125 3.203125 C-3.4453125 4.193125 -3.4453125 5.183125 -3.4453125 6.203125 C-2.4553125 6.533125 -1.4653125 6.863125 -0.4453125 7.203125 C-0.4453125 6.213125 -0.4453125 5.223125 -0.4453125 4.203125 C0.5446875 4.533125 1.5346875 4.863125 2.5546875 5.203125 C3.2421875 7.265625 3.2421875 7.265625 3.5546875 9.203125 C2.8946875 9.533125 2.2346875 9.863125 1.5546875 10.203125 C0.5646875 9.873125 -0.4253125 9.543125 -1.4453125 9.203125 C-0.7853125 10.523125 -0.1253125 11.843125 0.5546875 13.203125 C1.8746875 13.203125 3.1946875 13.203125 4.5546875 13.203125 C4.8846875 11.553125 5.2146875 9.903125 5.5546875 8.203125 C6.2146875 8.533125 6.8746875 8.863125 7.5546875 9.203125 C7.5546875 10.853125 7.5546875 12.503125 7.5546875 14.203125 C6.09931182 15.04161304 4.64028377 15.87376434 3.1796875 16.703125 C2.36757812 17.1671875 1.55546875 17.63125 0.71875 18.109375 C-1.4453125 19.203125 -1.4453125 19.203125 -3.4453125 19.203125 C-3.5278125 18.5225 -3.6103125 17.841875 -3.6953125 17.140625 C-4.66863778 13.3284343 -6.40338705 10.56242171 -8.4453125 7.203125 C-9.4353125 7.203125 -10.4253125 7.203125 -11.4453125 7.203125 C-10.70280653 11.28690783 -9.61607949 15.22251723 -8.4453125 19.203125 C-7.4553125 19.203125 -6.4653125 19.203125 -5.4453125 19.203125 C-5.7753125 20.193125 -6.1053125 21.183125 -6.4453125 22.203125 C-8.7553125 22.533125 -11.0653125 22.863125 -13.4453125 23.203125 C-13.1153125 22.213125 -12.7853125 21.223125 -12.4453125 20.203125 C-12.83928585 17.56507911 -12.83928585 17.56507911 -13.4453125 15.203125 C-14.1053125 15.203125 -14.7653125 15.203125 -15.4453125 15.203125 C-15.4453125 18.503125 -15.4453125 21.803125 -15.4453125 25.203125 C-18.68006698 23.58574776 -20.15103271 22.72683277 -22.4453125 20.203125 C-22.09744542 22.17849245 -22.09744542 22.17849245 -21.4453125 24.203125 C-20.7853125 24.533125 -20.1253125 24.863125 -19.4453125 25.203125 C-19.4453125 25.863125 -19.4453125 26.523125 -19.4453125 27.203125 C-21.4253125 27.533125 -23.4053125 27.863125 -25.4453125 28.203125 C-26.11197917 23.53645833 -26.77864583 18.86979167 -27.4453125 14.203125 C-28.4353125 14.203125 -29.4253125 14.203125 -30.4453125 14.203125 C-30.4453125 13.543125 -30.4453125 12.883125 -30.4453125 12.203125 C-27.8203125 11.328125 -27.8203125 11.328125 -24.4453125 11.203125 C-22.10095306 12.91915387 -20.278982 14.95980593 -18.4453125 17.203125 C-18.46335938 16.5740625 -18.48140625 15.945 -18.5 15.296875 C-18.28115593 12.13790838 -17.85200011 10.06500669 -16.4453125 7.203125 C-14.13004036 5.32996512 -12.12387565 3.89821992 -9.5703125 2.453125 C-8.94495605 2.09412109 -8.31959961 1.73511719 -7.67529297 1.36523438 C-3.09984913 -1.01017448 -3.09984913 -1.01017448 0 0 Z " fill="#000000" transform="translate(193.4453125,230.796875)"/>
<path d="M0 0 C1.32 0.66 2.64 1.32 4 2 C4 2.99 4 3.98 4 5 C2.68 5.33 1.36 5.66 0 6 C1.0703509 7.17858863 2.15683965 8.3425361 3.25 9.5 C3.85328125 10.1496875 4.4565625 10.799375 5.078125 11.46875 C7.11185508 13.41542862 7.11185508 13.41542862 11 13 C9.71480435 15.86697492 8.42870746 17.97607712 6 20 C5.34 20 4.68 20 4 20 C4 19.29875 4 18.5975 4 17.875 C2.44766762 13.41204442 -1.16489997 11.54217337 -5 9 C-5 10.65 -5 12.3 -5 14 C-6.32 13.67 -7.64 13.34 -9 13 C-6.03 16.96 -3.06 20.92 0 25 C-0.33 25.66 -0.66 26.32 -1 27 C-2.958964 26.69147815 -4.91715713 26.3780582 -6.875 26.0625 C-8.51082031 25.80146484 -8.51082031 25.80146484 -10.1796875 25.53515625 C-13 25 -13 25 -15 24 C-13.21168225 27.05763218 -13.21168225 27.05763218 -11 30 C-10.01 30 -9.02 30 -8 30 C-8.75 31.9375 -8.75 31.9375 -10 34 C-12.125 34.75 -12.125 34.75 -14 35 C-14.061875 34.29875 -14.12375 33.5975 -14.1875 32.875 C-15.31353988 28.89055121 -17.13893266 26.99730865 -20 24 C-20.99 23.67 -21.98 23.34 -23 23 C-23 22.34 -23 21.68 -23 21 C-20.33874255 19.20429716 -19.21888938 18.96654281 -15.984375 19.4609375 C-14.91703125 19.76257813 -13.8496875 20.06421875 -12.75 20.375 C-11.67234375 20.67148438 -10.5946875 20.96796875 -9.484375 21.2734375 C-8.25460938 21.63308594 -8.25460938 21.63308594 -7 22 C-9.79420492 18.08396696 -9.79420492 18.08396696 -14 16 C-14 15.34 -14 14.68 -14 14 C-12.4609375 12.51953125 -12.4609375 12.51953125 -10.375 10.8125 C-6.45744091 7.49442504 -3.24358767 3.9733949 0 0 Z " fill="#000000" transform="translate(217,207)"/>
<path d="M0 0 C-0.50603992 2.16874252 -0.99983813 3.99967627 -2 6 C-1.01 6.33 -0.02 6.66 1 7 C0.01 7.495 0.01 7.495 -1 8 C-0.34 8.33 0.32 8.66 1 9 C0.03307342 11.7249749 -0.54558408 12.77928369 -3.1875 14.0625 C-7.41104247 13.9686435 -9.8387598 11.63284847 -13 9 C-13.33 9.33 -13.66 9.66 -14 10 C-13.195625 10.474375 -12.39125 10.94875 -11.5625 11.4375 C-9 13 -9 13 -8 14 C-7.95919217 15.99958364 -7.95745644 18.00045254 -8 20 C-16.13734658 19.65225015 -16.13734658 19.65225015 -19.5625 17.0625 C-21 15 -21 15 -21 13 C-21.99 12.67 -22.98 12.34 -24 12 C-21.8614515 9.8614515 -20.86724686 9.57344937 -18 9 C-18.33 7.68 -18.66 6.36 -19 5 C-17.68 4.67 -16.36 4.34 -15 4 C-15 4.66 -15 5.32 -15 6 C-14.34 6.33 -13.68 6.66 -13 7 C-12.95875 6.38125 -12.9175 5.7625 -12.875 5.125 C-12 3 -12 3 -9.1875 1.8125 C-8.135625 1.544375 -7.08375 1.27625 -6 1 C-4.88625 0.690625 -4.88625 0.690625 -3.75 0.375 C-2 0 -2 0 0 0 Z " fill="#DCC033" transform="translate(163,63)"/>
<path d="M0 0 C1.32 0 2.64 0 4 0 C4.50691754 14.44714995 2.5480527 27.16186946 -6 39 C-6.33 39 -6.66 39 -7 39 C-6.60390799 30.75035954 -5.78322924 22.6116524 -4.625 14.4375 C-4.4542395 13.15311035 -4.4542395 13.15311035 -4.2800293 11.84277344 C-3.61828192 7.37344027 -3.04608899 3.52970975 0 0 Z " fill="#F1F3F6" transform="translate(203,148)"/>
<path d="M0 0 C2.375 0.25 2.375 0.25 5 1 C7.07346031 4.15356057 7.52626451 7.36046188 8.0703125 11.05078125 C8.24433594 12.22447266 8.41835937 13.39816406 8.59765625 14.60742188 C8.77167969 15.83009766 8.94570312 17.05277344 9.125 18.3125 C9.30675781 19.52357422 9.48851563 20.73464844 9.67578125 21.98242188 C10.50817931 27.69968223 11.25612305 33.2201565 11 39 C3.36129474 29.99724023 0.7565992 21.85917526 0.375 10.125 C0.33632813 9.15046875 0.29765625 8.1759375 0.2578125 7.171875 C0.16406967 4.7814328 0.0783617 2.39098756 0 0 Z " fill="#F3F4F7" transform="translate(56,148)"/>
<path d="M0 0 C2.125 0.375 2.125 0.375 4 1 C4.36498374 11.40203667 4.54780761 24.33552951 -2 33 C-3.64337716 34.68963519 -5.30696046 36.36013029 -7 38 C-6.10758264 28.43538575 -5.12115599 18.90987428 -3.5 9.4375 C-3.38164795 8.71828369 -3.2632959 7.99906738 -3.14135742 7.25805664 C-2.24390969 2.24390969 -2.24390969 2.24390969 0 0 Z " fill="#F4F5F8" transform="translate(215,140)"/>
<path d="M0 0 C1.8984375 1.0078125 1.8984375 1.0078125 4 3 C4.74140122 5.69870043 5.2447748 8.12598082 5.625 10.875 C5.74270752 11.63079346 5.86041504 12.38658691 5.98168945 13.1652832 C6.22002645 14.70594426 6.4512584 16.24772161 6.67529297 17.79052734 C6.97023289 19.79744937 7.29776139 21.79951448 7.62890625 23.80078125 C8.47682143 28.94163762 9.10056392 33.77841172 9 39 C-0.32885556 30.70768395 -1.23929636 20.82780625 -2 9 C-2.171875 5.09765625 -2.171875 5.09765625 -2 2 C-1.34 1.34 -0.68 0.68 0 0 Z " fill="#F4F6F8" transform="translate(46,139)"/>
<path d="M0 0 C0 1.98 0 3.96 0 6 C1.98 6 3.96 6 6 6 C5.5 7.875 5.5 7.875 4 10 C1.34822355 10.98494554 -1.20547307 11.45912382 -4 12 C-1.69 12.66 0.62 13.32 3 14 C2.67 14.66 2.34 15.32 2 16 C1.34 16 0.68 16 0 16 C0 16.99 0 17.98 0 19 C-0.99 19.33 -1.98 19.66 -3 20 C-3.66 18.68 -4.32 17.36 -5 16 C-6.58408173 17.07716915 -6.58408173 17.07716915 -8 19 C-8.165 20.175625 -8.33 21.35125 -8.5 22.5625 C-8.665 23.696875 -8.83 24.83125 -9 26 C-9.99 26.66 -10.98 27.32 -12 28 C-12.99 27.67 -13.98 27.34 -15 27 C-14.01 26.34 -13.02 25.68 -12 25 C-11.26656572 21.93443402 -11.26656572 21.93443402 -11 19 C-12.98 20.65 -14.96 22.3 -17 24 C-16.70820766 20.49849196 -16.21713533 19.21713533 -13.6875 16.6875 C-11 15 -11 15 -7 15 C-7.66 14.34 -8.32 13.68 -9 13 C-8.75 11.25 -8.75 11.25 -8 9 C-7.71125 7.989375 -7.4225 6.97875 -7.125 5.9375 C-5.53065457 1.77448692 -4.58942725 0 0 0 Z " fill="#617771" transform="translate(151,35)"/>
<path d="M0 0 C3.24271506 0.5590888 4.93057424 1.4132178 7 4 C7 4.66 7 5.32 7 6 C7.66 6 8.32 6 9 6 C9.33 6.99 9.66 7.98 10 9 C9.34 9 8.68 9 8 9 C7.67 11.31 7.34 13.62 7 16 C7.66 16.33 8.32 16.66 9 17 C8.67 18.65 8.34 20.3 8 22 C9.32 21.67 10.64 21.34 12 21 C12 18.36 12 15.72 12 13 C14.76222843 15.38556092 15.98658817 17.49203597 17 21 C17.15512216 23.69212002 17.09156216 26.29891626 17 29 C16.01 29.33 15.02 29.66 14 30 C11.8125 28.5625 11.8125 28.5625 10 27 C9.34 27.66 8.68 28.32 8 29 C7.01 28.67 6.02 28.34 5 28 C5.226875 26.9275 5.45375 25.855 5.6875 24.75 C6.35775825 21.07021424 6.35775825 21.07021424 4.5625 18.5625 C4.046875 18.046875 3.53125 17.53125 3 17 C3.66 16.01 4.32 15.02 5 14 C5.56460541 9.70899888 4.35404972 7.53107458 2 4 C1.31903578 2.67391178 0.64669414 1.34313399 0 0 Z " fill="#557373" transform="translate(105,45)"/>
<path d="M0 0 C4.8833926 0.95688098 8.65342367 3.32981606 12 7 C13.0161293 10.1512105 12.65738565 11.60350746 12 15 C10.06611599 17.90082601 8.58223194 18.76433469 5.375 20.0625 C0.23727368 19.96735692 -3.60563744 17.50982367 -8 15 C-8 14.34 -8 13.68 -8 13 C-7.01 12.67 -6.02 12.34 -5 12 C-3.54585884 10.28465281 -3.54585884 10.28465281 -2.3125 8.1875 C-1.87550781 7.50042969 -1.43851563 6.81335938 -0.98828125 6.10546875 C0.28327142 3.78415468 0.28327142 3.78415468 0 0 Z M4 5 C1.03 9.95 1.03 9.95 -2 15 C-0.17899853 17.19920496 -0.17899853 17.19920496 2.375 17.4375 C5.20458771 17.2120128 5.20458771 17.2120128 7.375 14.8125 C9.22408267 12.15353071 9.22408267 12.15353071 9 9.3125 C8.07973815 6.50365889 8.07973815 6.50365889 4 5 Z " fill="#000000" transform="translate(62,226)"/>
<path d="M0 0 C1.984375 1.08203125 1.984375 1.08203125 4 3 C4.390625 6.13671875 4.390625 6.13671875 4.25 9.6875 C4.21390625 10.86699219 4.1778125 12.04648438 4.140625 13.26171875 C4.07101563 14.61716797 4.07101563 14.61716797 4 16 C6.91171789 12.33019796 6.91171789 12.33019796 8 8 C11.16115776 9.36983503 11.9927092 9.9890638 14 13 C13.319375 13.165 12.63875 13.33 11.9375 13.5 C8.1770897 15.42020951 6.23213904 18.03515353 3.6484375 21.3203125 C3.10445312 21.87460938 2.56046875 22.42890625 2 23 C1.01 23 0.02 23 -1 23 C-1 18.38 -1 13.76 -1 9 C-5.31234752 13.32324703 -5.31234752 13.32324703 -5 17 C-8.16115776 15.63016497 -8.9927092 15.0109362 -11 12 C-10.278125 11.79375 -9.55625 11.5875 -8.8125 11.375 C-5.13129782 9.57530116 -3.37794973 7.30270796 -1 4 C-0.14720662 1.78264561 -0.14720662 1.78264561 0 0 Z " fill="#000000" transform="translate(45,210)"/>
<path d="M0 0 C2.96568565 0.09150028 3.99150384 0.28942554 6.5625 1.9375 C8.64358903 5.18399889 9.05749957 7.52747539 9.125 11.375 C7.77937601 14.32255732 7.03945456 15.91777272 4.125 17.375 C-3.01169065 17.95053957 -3.01169065 17.95053957 -6.3125 15.75 C-8.24731132 12.8090868 -8.80309193 10.89849544 -8.875 7.375 C-6.66616122 2.74695685 -5.25790675 0.50882969 0 0 Z M-3.6875 3.4375 C-5.58753438 6.53755609 -4.66967326 8.9517921 -3.875 12.375 C-2.885 13.86 -2.885 13.86 -1.875 15.375 C0.625 15.875 0.625 15.875 3.125 15.375 C5.2452151 12.19467735 5.3745865 11.82932601 4.875 8.3125 C4.78734375 7.62027344 4.6996875 6.92804688 4.609375 6.21484375 C4.22919911 4.14334528 4.22919911 4.14334528 2.125 2.375 C-1.65002919 2.03785367 -1.65002919 2.03785367 -3.6875 3.4375 Z " fill="#000000" transform="translate(140.875,246.625)"/>
<path d="M0 0 C5.87326843 0.41215919 10.56382088 1.76728358 16 4 C16 6.64 16 9.28 16 12 C14.68 12 13.36 12 12 12 C11.01 12.33 10.02 12.66 9 13 C8.01 11.02 7.02 9.04 6 7 C5.01 7.66 4.02 8.32 3 9 C1.9375 6.625 1.9375 6.625 1 4 C1.33 3.34 1.66 2.68 2 2 C1.01 1.67 0.02 1.34 -1 1 C-0.67 0.67 -0.34 0.34 0 0 Z " fill="#989759" transform="translate(105,74)"/>
<path d="M0 0 C2 3 2 3 1.75 5.5625 C1 8 1 8 -1 10 C-2.32 10 -3.64 10 -5 10 C-4.67 11.32 -4.34 12.64 -4 14 C-3.01 14 -2.02 14 -1 14 C-1 14.66 -1 15.32 -1 16 C-3.64 16.66 -6.28 17.32 -9 18 C-8.67 16.68 -8.34 15.36 -8 14 C-8.30727106 11.16486926 -8.30727106 11.16486926 -8.9375 8.25 C-9.13214844 7.26515625 -9.32679688 6.2803125 -9.52734375 5.265625 C-9.68332031 4.51796875 -9.83929688 3.7703125 -10 3 C-10.66 3 -11.32 3 -12 3 C-12 2.34 -12 1.68 -12 1 C-4.25675676 -1.58108108 -4.25675676 -1.58108108 0 0 Z M-7 2 C-6.34 3.98 -5.68 5.96 -5 8 C-4.01 7.67 -3.02 7.34 -2 7 C-2.33 5.35 -2.66 3.7 -3 2 C-4.32 2 -5.64 2 -7 2 Z " fill="#000000" transform="translate(162,245)"/>
<path d="M0 0 C-1.40883327 4.09842405 -3.49038357 7.45591603 -5.87890625 11.03515625 C-7.01660911 13.02910935 -7.55566453 14.7583525 -8 17 C-8.99 16.67 -9.98 16.34 -11 16 C-12.1875 13.4375 -12.1875 13.4375 -13 11 C-12.01 11 -11.02 11 -10 11 C-10.33 9.35 -10.66 7.7 -11 6 C-11.99 6.33 -12.98 6.66 -14 7 C-14 7.66 -14 8.32 -14 9 C-15.9375 8.25 -15.9375 8.25 -18 7 C-18.75 4.875 -18.75 4.875 -19 3 C-17.80375 2.87625 -16.6075 2.7525 -15.375 2.625 C-12.6381242 2.29194104 -10.45773995 1.81924665 -7.8125 0.9375 C-5.01198553 0.00399518 -2.92553 -0.17209 0 0 Z M-7 3 C-7.66 3.66 -8.32 4.32 -9 5 C-8.01 5 -7.02 5 -6 5 C-6.33 4.34 -6.66 3.68 -7 3 Z " fill="#000000" transform="translate(42,204)"/>
<path d="M0 0 C1.33333333 0.66666667 2.66666667 1.33333333 4 2 C5.051875 2.495 5.051875 2.495 6.125 3 C8 4 8 4 10 6 C10.38079379 9.61754103 9.84651134 11.88401212 8 15 C8.99 15.66 9.98 16.32 11 17 C10.67 19.64 10.34 22.28 10 25 C6.125 24.125 6.125 24.125 5 23 C4.92741054 20.81360547 4.91626217 18.62499611 4.9375 16.4375 C4.94652344 15.23996094 4.95554687 14.04242188 4.96484375 12.80859375 C4.97644531 11.88175781 4.98804687 10.95492187 5 10 C4.35546875 9.75507812 3.7109375 9.51015625 3.046875 9.2578125 C1 8 1 8 0.390625 6.0546875 C0.26041667 4.03645833 0.13020833 2.01822917 0 0 Z " fill="#5A7671" transform="translate(101,48)"/>
<path d="M0 0 C3.16115776 1.36983503 3.9927092 1.9890638 6 5 C5.73975227 8.12297273 4.85230977 10.30800682 3.4921875 13.14453125 C1.72240966 17.22287764 1.45348322 21.03479541 1.3125 25.4375 C1.27833984 26.16904297 1.24417969 26.90058594 1.20898438 27.65429688 C1.12748247 29.43569562 1.06204477 31.21781749 1 33 C0.01 33 -0.98 33 -2 33 C-2.09960203 26.88000862 -2.02774009 21.037973 -1 15 C-1 14.34 -1 13.68 -1 13 C-0.01 13 0.98 13 2 13 C0.68 12.34 -0.64 11.68 -2 11 C-1.125 3.375 -1.125 3.375 0 0 Z " fill="#26617C" transform="translate(132,198)"/>
<path d="M0 0 C2.1385485 2.1385485 2.42655063 3.13275314 3 6 C3.99 5.34 4.98 4.68 6 4 C7.125 9.625 7.125 9.625 6 13 C6.33 13.66 6.66 14.32 7 15 C7.66 14.34 8.32 13.68 9 13 C9.35050464 18.841744 9.16727335 22.8531808 6 28 C5.34 27.34 4.68 26.68 4 26 C4.66 26 5.32 26 6 26 C6 23.03 6 20.06 6 17 C4.68 18.32 3.36 19.64 2 21 C0.85185003 18.70370006 0.69230191 16.92301914 0.4375 14.375 C0.35371094 13.55773438 0.26992187 12.74046875 0.18359375 11.8984375 C0.12300781 11.27195312 0.06242187 10.64546875 0 10 C-0.66 10.66 -1.32 11.32 -2 12 C-2.66 11.67 -3.32 11.34 -4 11 C-3.71125 10.484375 -3.4225 9.96875 -3.125 9.4375 C-1.71219973 6.37643275 -0.8751483 3.25055082 0 0 Z " fill="#848C60" transform="translate(121,44)"/>
<path d="M0 0 C7.23809524 -0.36190476 7.23809524 -0.36190476 10.5 1.1875 C12 3 12 3 12.4375 5.5 C11.91986863 8.45789355 11.35154142 9.19472373 9 11 C6.73828125 11.29296875 6.73828125 11.29296875 4.3125 11.1875 C2.889375 11.125625 1.46625 11.06375 0 11 C0 7.37 0 3.74 0 0 Z " fill="#12597E" transform="translate(158,102)"/>
<path d="M0 0 C0.99 0.66 1.98 1.32 3 2 C3.375 5.4375 3.375 5.4375 3 9 C2.49082031 9.44085938 1.98164062 9.88171875 1.45703125 10.3359375 C-0.31110135 11.99749754 -0.31110135 11.99749754 -0.07421875 14.91796875 C0.05339844 15.99691406 0.18101563 17.07585938 0.3125 18.1875 C0.43238281 19.27417969 0.55226563 20.36085938 0.67578125 21.48046875 C0.78277344 22.31191406 0.88976562 23.14335938 1 24 C-0.65 24.33 -2.3 24.66 -4 25 C-3.979375 24.2575 -3.95875 23.515 -3.9375 22.75 C-3.87119033 20.08844281 -3.87119033 20.08844281 -4.625 18 C-5.14317921 15.23637753 -4.02919038 13.57297594 -3 11 C-3.30271961 9.65938457 -3.63837971 8.32594105 -4 7 C-3.72949547 4.99053778 -3.40632091 2.98645776 -3 1 C-2.01 0.67 -1.02 0.34 0 0 Z " fill="#999858" transform="translate(117,42)"/>
<path d="M0 0 C0.99 0.33 1.98 0.66 3 1 C3.33 1.99 3.66 2.98 4 4 C3.67 4.66 3.34 5.32 3 6 C3.78375 6.28875 4.5675 6.5775 5.375 6.875 C8 8 8 8 10 10 C10.125 13.125 10.125 13.125 10 16 C1.86265342 15.65225015 1.86265342 15.65225015 -1.5625 13.0625 C-3 11 -3 11 -3 9 C-3.99 8.67 -4.98 8.34 -6 8 C-3.8614515 5.8614515 -2.86724686 5.57344937 0 5 C-0.2784375 4.0409375 -0.2784375 4.0409375 -0.5625 3.0625 C-0.706875 2.381875 -0.85125 1.70125 -1 1 C-0.67 0.67 -0.34 0.34 0 0 Z " fill="#3F6A76" transform="translate(145,67)"/>
<path d="M0 0 C2.64 0 5.28 0 8 0 C8 0.66 8 1.32 8 2 C7.34 2 6.68 2 6 2 C6.01160156 2.60328125 6.02320312 3.2065625 6.03515625 3.828125 C6.04869141 5.02695313 6.04869141 5.02695313 6.0625 6.25 C6.07410156 7.03890625 6.08570312 7.8278125 6.09765625 8.640625 C6.00385306 10.90691002 5.63241063 12.8288895 5 15 C7.47266765 14.65555119 7.47266765 14.65555119 10 14 C10.33 13.34 10.66 12.68 11 12 C11.66 12 12.32 12 13 12 C12.67 13.98 12.34 15.96 12 18 C7.71 17.67 3.42 17.34 -1 17 C-1 16.34 -1 15.68 -1 15 C-0.01 15 0.98 15 2 15 C2 10.71 2 6.42 2 2 C1.34 2 0.68 2 0 2 C0 1.34 0 0.68 0 0 Z " fill="#000000" transform="translate(118,247)"/>
<path d="M0 0 C0.86625 0.433125 1.7325 0.86625 2.625 1.3125 C2.4375 3.625 2.4375 3.625 1.625 6.3125 C-1.70746046 8.99698204 -4.13704266 9.67575349 -8.375 9.3125 C-8.705 7.6625 -9.035 6.0125 -9.375 4.3125 C-4.20576923 -0.85673077 -4.20576923 -0.85673077 0 0 Z " fill="#6B7C6F" transform="translate(140.375,64.6875)"/>
<path d="M0 0 C2.0625 0.9375 2.0625 0.9375 4 3 C4.29488514 8.18591116 2.8469442 13.19794507 1 18 C-0.98 18.33 -2.96 18.66 -5 19 C-4.505 17.515 -4.505 17.515 -4 16 C-3.34 15.67 -2.68 15.34 -2 15 C-1.718235 12.67616498 -1.54828316 10.33823176 -1.4375 8 C-1.09650053 1.09650053 -1.09650053 1.09650053 0 0 Z " fill="#416C75" transform="translate(134,33)"/>
<path d="M0 0 C0.66 0.33 1.32 0.66 2 1 C2.02688151 2.64574566 2.04634123 4.29161413 2.0625 5.9375 C2.07410156 6.85402344 2.08570313 7.77054688 2.09765625 8.71484375 C2 11 2 11 1 12 C1.66 12.66 2.32 13.32 3 14 C-0.28696233 14.79953138 -1.71023192 15.09658936 -5 14 C-5.75 11.8125 -5.75 11.8125 -6 9 C-4.1875 6.4375 -4.1875 6.4375 -2 4 C-1.29114106 2.68861096 -0.60543548 1.36222983 0 0 Z " fill="#E2C52E" transform="translate(142,36)"/>
<path d="M0 0 C0.66 0 1.32 0 2 0 C2.25 2.75 2.25 2.75 2 6 C0 8.375 0 8.375 -2 10 C-0.35 9.34 1.3 8.68 3 8 C3.33 8.99 3.66 9.98 4 11 C2.68 12.32 1.36 13.64 0 15 C-0.33 14.67 -0.66 14.34 -1 14 C-1.66 15.32 -2.32 16.64 -3 18 C-5 15 -5 15 -4.71875 13.13671875 C-4.4815625 12.43160156 -4.244375 11.72648437 -4 11 C-3.7628125 10.16082031 -3.525625 9.32164063 -3.28125 8.45703125 C-3.0234375 7.58433594 -2.765625 6.71164063 -2.5 5.8125 C-2.2421875 4.93207031 -1.984375 4.05164062 -1.71875 3.14453125 C-1 1 -1 1 0 0 Z " fill="#C0AE47" transform="translate(131,42)"/>
<path d="M0 0 C0.66 0 1.32 0 2 0 C2.125 5.75 2.125 5.75 1 8 C1.763125 7.34 2.52625 6.68 3.3125 6 C6 4 6 4 9 4 C8.00629727 6.59436983 7.44293474 7.7671861 4.94140625 9.08203125 C4.15636719 9.32308594 3.37132812 9.56414063 2.5625 9.8125 C1.78003906 10.06644531 0.99757812 10.32039063 0.19140625 10.58203125 C-2 11 -2 11 -5 10 C-5 8.35 -5 6.7 -5 5 C-4.34 5 -3.68 5 -3 5 C-2.5359375 4.0409375 -2.5359375 4.0409375 -2.0625 3.0625 C-1 1 -1 1 0 0 Z " fill="#DFC331" transform="translate(138,54)"/>
<path d="M0 0 C2 0.33333333 4 0.66666667 6 1 C6 1.66 6 2.32 6 3 C5.030625 3.268125 4.06125 3.53625 3.0625 3.8125 C2.051875 4.204375 1.04125 4.59625 0 5 C-0.33 5.99 -0.66 6.98 -1 8 C-1.99 7.67 -2.98 7.34 -4 7 C-5 4 -5 4 -4 1 C-4.7425 1.53625 -5.485 2.0725 -6.25 2.625 C-7.1575 3.07875 -8.065 3.5325 -9 4 C-11.3125 3.1875 -11.3125 3.1875 -13 2 C-8.06172511 -0.46913745 -5.50743068 -1.40615251 0 0 Z " fill="#446D75" transform="translate(151,62)"/>
<path d="M0 0 C1.32 0 2.64 0 4 0 C3.67 4.62 3.34 9.24 3 14 C0.91768317 11.39710397 -1.15099935 8.77350098 -3 6 C-2.64111965 3.03923709 -2.15341979 2.15341979 0 0 Z " fill="#34677A" transform="translate(125,196)"/>
<path d="M0 0 C1.51400391 0.01740234 1.51400391 0.01740234 3.05859375 0.03515625 C4.07050781 0.04417969 5.08242187 0.05320313 6.125 0.0625 C7.29869141 0.07990234 7.29869141 0.07990234 8.49609375 0.09765625 C8.12109375 2.03515625 8.12109375 2.03515625 7.49609375 4.09765625 C4.9755578 5.35792423 3.64188395 5.0164007 0.87109375 4.66015625 C-0.35480469 4.50740234 -0.35480469 4.50740234 -1.60546875 4.3515625 C-2.54519531 4.22587891 -2.54519531 4.22587891 -3.50390625 4.09765625 C-3.50390625 0.13665781 -3.50390625 0.13665781 0 0 Z " fill="#E3C52D" transform="translate(154.50390625,53.90234375)"/>
<path d="M0 0 C2.1385485 2.1385485 2.42655063 3.13275314 3 6 C3.99 5.34 4.98 4.68 6 4 C6.33 5.98 6.66 7.96 7 10 C6.01 10.33 5.02 10.66 4 11 C3.67 10.34 3.34 9.68 3 9 C-0.0745356 9.7763932 -0.0745356 9.7763932 -2 12 C-2.66 11.67 -3.32 11.34 -4 11 C-3.71125 10.484375 -3.4225 9.96875 -3.125 9.4375 C-1.71219973 6.37643275 -0.8751483 3.25055082 0 0 Z " fill="#697F6C" transform="translate(121,44)"/>
<path d="M0 0 C7.75 0.875 7.75 0.875 10 2 C10 4.64 10 7.28 10 10 C8.68 10 7.36 10 6 10 C5.81824219 9.44570312 5.63648437 8.89140625 5.44921875 8.3203125 C5.07216797 7.23363281 5.07216797 7.23363281 4.6875 6.125 C4.44386719 5.40570313 4.20023437 4.68640625 3.94921875 3.9453125 C3.03664453 1.66005095 3.03664453 1.66005095 0 0 Z " fill="#4F7074" transform="translate(111,76)"/>
<path d="M0 0 C1.36125 0.37125 1.36125 0.37125 2.75 0.75 C1.75 2.75 1.75 2.75 0.75 3.75 C0.62625 4.884375 0.5025 6.01875 0.375 7.1875 C0.16875 8.363125 -0.0375 9.53875 -0.25 10.75 C-1.24 11.41 -2.23 12.07 -3.25 12.75 C-4.24 12.42 -5.23 12.09 -6.25 11.75 C-5.26 11.09 -4.27 10.43 -3.25 9.75 C-2.51656572 6.68443402 -2.51656572 6.68443402 -2.25 3.75 C-5.22 6.225 -5.22 6.225 -8.25 8.75 C-7.90877813 5.67900316 -7.36774025 3.9157085 -5.5625 1.375 C-3.25 -0.25 -3.25 -0.25 0 0 Z " fill="#6A7D6E" transform="translate(142.25,50.25)"/>
<path d="M0 0 C-0.33 1.32 -0.66 2.64 -1 4 C-2.03060547 4.14695312 -2.03060547 4.14695312 -3.08203125 4.296875 C-3.98308594 4.44640625 -4.88414062 4.5959375 -5.8125 4.75 C-6.70582031 4.88921875 -7.59914062 5.0284375 -8.51953125 5.171875 C-11.50572658 6.168841 -12.38380344 7.3582435 -14 10 C-14.66 9.67 -15.32 9.34 -16 9 C-12.27567747 2.51247043 -12.27567747 2.51247043 -8.734375 1.08984375 C-5.80068285 0.45105594 -3.00452284 0 0 0 Z " fill="#E6C72C" transform="translate(163,63)"/>
<path d="M0 0 C0.66 0 1.32 0 2 0 C4.84450614 3.71973879 5.3227506 6.37390802 5 11 C3.35 11.33 1.7 11.66 0 12 C0.020625 11.2575 0.04125 10.515 0.0625 9.75 C0.10899006 7.07691753 0.10899006 7.07691753 -0.5625 4.875 C-1 3 -1 3 0 0 Z " fill="#E2C42F" transform="translate(113,55)"/>
<path d="M0 0 C0.33 0 0.66 0 1 0 C1.33 3.3 1.66 6.6 2 10 C2.66 10 3.32 10 4 10 C4 11.98 4 13.96 4 16 C0.55165529 13.76263716 -1.01932372 11.61594923 -2.8125 7.9375 C-3.25207031 7.05964844 -3.69164063 6.18179688 -4.14453125 5.27734375 C-4.42683594 4.52582031 -4.70914063 3.77429687 -5 3 C-4.67 2.34 -4.34 1.68 -4 1 C-3.01 1 -2.02 1 -1 1 C-0.67 0.67 -0.34 0.34 0 0 Z " fill="#DBC034" transform="translate(121,53)"/>
<path d="M0 0 C2.5 1.5625 2.5 1.5625 5 4 C5.3125 7.75 5.3125 7.75 5 11 C2.525 10.01 2.525 10.01 0 9 C-1.125 2.25 -1.125 2.25 0 0 Z " fill="#E0C330" transform="translate(108,35)"/>
<path d="M0 0 C1.875 0.3125 1.875 0.3125 4 1 C4.66 1.99 5.32 2.98 6 4 C6.66 3.67 7.32 3.34 8 3 C8.1875 5.375 8.1875 5.375 8 8 C7.01 8.66 6.02 9.32 5 10 C5 9.34 5 8.68 5 8 C3.68 7.67 2.36 7.34 1 7 C0.67 4.69 0.34 2.38 0 0 Z " fill="#DDC133" transform="translate(117,33)"/>
<path d="M0 0 C4.21912747 0.4794463 6.79663178 1.16625119 10 4 C9.34 5.32 8.68 6.64 8 8 C1.23076923 4.55384615 1.23076923 4.55384615 0.0625 1.75 C0.041875 1.1725 0.02125 0.595 0 0 Z " fill="#29617B" transform="translate(134,193)"/>
<path d="M0 0 C2 1 4 2 6 3 C5.67 3.66 5.34 4.32 5 5 C1.07858405 6.03802187 -2.98489604 6.4489073 -7 7 C-7 6.01 -7 5.02 -7 4 C-3.77208445 1.8480563 -2.71599191 1.79913557 1 2 C0.67 1.34 0.34 0.68 0 0 Z " fill="#D4BB38" transform="translate(104,70)"/>
<path d="M0 0 C0.99 0 1.98 0 3 0 C2.71848913 1.31471568 2.42446661 2.62675767 2.125 3.9375 C1.96257812 4.66839844 1.80015625 5.39929688 1.6328125 6.15234375 C1 8 1 8 -1 9 C-3.3329866 9.04022391 -5.66706666 9.04320247 -8 9 C-6.8553125 8.1646875 -6.8553125 8.1646875 -5.6875 7.3125 C-2.89706965 5.16149517 -2.89706965 5.16149517 -1.375 2.25 C-0.92125 1.5075 -0.4675 0.765 0 0 Z " fill="#DBC034" transform="translate(104,76)"/>
<path d="M0 0 C7.875 0.875 7.875 0.875 9 2 C11.32817964 2.36760731 13.6618385 2.70241581 16 3 C16 3.66 16 4.32 16 5 C12.52674819 6.1577506 9.63932552 6.06866652 6 6 C6.33 5.34 6.66 4.68 7 4 C4.69 3.01 2.38 2.02 0 1 C0 0.67 0 0.34 0 0 Z " fill="#EACA28" transform="translate(146,46)"/>
<path d="M0 0 C-0.36793618 2.66753731 -0.81998328 3.81998328 -2.75 5.75 C-5.37943983 7.21079991 -7.0374441 7.24687966 -10 7 C-7.45564849 2.16573213 -5.60644734 0 0 0 Z " fill="#EBCB27" transform="translate(142,65)"/>
<path d="M0 0 C2.0625 2.375 2.0625 2.375 4 5 C6.11660427 6.31165257 6.11660427 6.31165257 8 7 C7 8 7 8 4.625 8.375 C3.75875 8.25125 2.8925 8.1275 2 8 C0.375 5.5625 0.375 5.5625 -1 3 C-1.99 2.67 -2.98 2.34 -4 2 C-4.33 2.66 -4.66 3.32 -5 4 C-5.99 4 -6.98 4 -8 4 C-7.67 3.01 -7.34 2.02 -7 1 C-4.37869511 -0.31065245 -2.90828303 -0.415469 0 0 Z " fill="#3A6976" transform="translate(142,76)"/>
<path d="M0 0 C0.33 0.66 0.66 1.32 1 2 C1.99 2.33 2.98 2.66 4 3 C-4.42857143 5.42857143 -4.42857143 5.42857143 -9 4 C-9 3.01 -9 2.02 -9 1 C-4.545 0.505 -4.545 0.505 0 0 Z " fill="#8F9359" transform="translate(160,67)"/>
<path d="M0 0 C1.32 0.66 2.64 1.32 4 2 C4 4.31 4 6.62 4 9 C3.01 9 2.02 9 1 9 C-1.09230769 4.56923077 -1.09230769 4.56923077 -0.625 1.6875 C-0.41875 1.130625 -0.2125 0.57375 0 0 Z " fill="#E4C62D" transform="translate(112,77)"/>
<path d="M0 0 C1.32 0.99 2.64 1.98 4 3 C3.67 5.31 3.34 7.62 3 10 C2.34 10 1.68 10 1 10 C-0.85064319 6.87703962 -1.29356154 4.62059232 -1 1 C-0.67 0.67 -0.34 0.34 0 0 Z " fill="#E1C42F" transform="translate(134,33)"/>
<path d="M0 0 C0 3.96 0 7.92 0 12 C-0.99 12 -1.98 12 -3 12 C-3 8.37 -3 4.74 -3 1 C-1 0 -1 0 0 0 Z " fill="#10587E" transform="translate(133,219)"/>
<path d="M0 0 C1.48253267 0.61697319 2.96095174 1.24383896 4.4375 1.875 C5.67306641 2.39707031 5.67306641 2.39707031 6.93359375 2.9296875 C9 4 9 4 10 6 C3.9453125 6.1953125 3.9453125 6.1953125 2 6 C1.34 5.34 0.68 4.68 0 4 C0 2.68 0 1.36 0 0 Z " fill="#E7C82B" transform="translate(93,65)"/>
<path d="M0 0 C0.125 6.75 0.125 6.75 -1 9 C-3.0625 9.625 -3.0625 9.625 -5 10 C-5.49076517 4.60158311 -5.49076517 4.60158311 -3.0625 1.625 C-1 0 -1 0 0 0 Z " fill="#BEAC49" transform="translate(147,50)"/>
<path d="M0 0 C2.5 1.6875 2.5 1.6875 5 4 C5.3125 6.75 5.3125 6.75 5 9 C4.01 9.33 3.02 9.66 2 10 C-0.09350689 6.5980513 -0.17942163 3.94727588 0 0 Z " fill="#E9CA28" transform="translate(106,50)"/>
<path d="M0 0 C4.75 0.75 4.75 0.75 7 3 C7.125 6.125 7.125 6.125 7 9 C4 8 4 8 2.375 5.0625 C1.92125 4.051875 1.4675 3.04125 1 2 C0.67 1.34 0.34 0.68 0 0 Z " fill="#DEC132" transform="translate(148,74)"/>
<path d="M0 0 C0.99 0 1.98 0 3 0 C3 1.98 3 3.96 3 6 C1.35 6.33 -0.3 6.66 -2 7 C-2.125 4.625 -2.125 4.625 -2 2 C-1.34 1.34 -0.68 0.68 0 0 Z " fill="#EBCB27" transform="translate(148,35)"/>
<path d="M0 0 C1.134375 0.020625 2.26875 0.04125 3.4375 0.0625 C2.1175 1.7125 0.7975 3.3625 -0.5625 5.0625 C-1.8825 4.7325 -3.2025 4.4025 -4.5625 4.0625 C-4.5625 -0.28271095 -4.43767807 0.077854 0 0 Z " fill="#1D5C7C" transform="translate(121.5625,192.9375)"/>
<path d="M0 0 C0.66 0 1.32 0 2 0 C1.42415568 2.38564077 0.77772405 4.66682784 0 7 C0 7.99 0 8.98 0 10 C-1.65 9.67 -3.3 9.34 -5 9 C-4.34 8.34 -3.68 7.68 -3 7 C-2.30899447 5.00827818 -1.64097297 3.00838196 -1 1 C-0.67 0.67 -0.34 0.34 0 0 Z " fill="#DFC232" transform="translate(145,63)"/>
<path d="M0 0 C0.99 0.33 1.98 0.66 3 1 C4.04449911 4.13349732 3.93423645 4.98968256 3 8 C0.69 7.67 -1.62 7.34 -4 7 C-2.68 6.34 -1.36 5.68 0 5 C-0.2784375 4.0409375 -0.2784375 4.0409375 -0.5625 3.0625 C-0.706875 2.381875 -0.85125 1.70125 -1 1 C-0.67 0.67 -0.34 0.34 0 0 Z " fill="#9E985B" transform="translate(145,67)"/>
<path d="M0 0 C0.66 0 1.32 0 2 0 C2.1875 2.875 2.1875 2.875 2 6 C1.01 6.66 0.02 7.32 -1 8 C-2.19232613 10.05003955 -2.19232613 10.05003955 -3 12 C-2.14285714 3.42857143 -2.14285714 3.42857143 0 0 Z " fill="#E5C62D" transform="translate(131,42)"/>
<path d="M0 0 C3.25543229 0.34879632 4.01873107 1.02133261 6.25 3.5625 C6.8275 4.366875 7.405 5.17125 8 6 C3.50347222 6.36458333 3.50347222 6.36458333 1.1875 4.6875 C0 3 0 3 0 0 Z " fill="#E4C62E" transform="translate(143,76)"/>
<path d="M0 0 C3.24299151 2.38957269 5.50902342 4.2047869 7 8 C1.125 7.125 1.125 7.125 0 6 C-0.04080783 4.00041636 -0.04254356 1.99954746 0 0 Z " fill="#D6BD38" transform="translate(96,59)"/>
<path d="M0 0 C0.66 0.33 1.32 0.66 2 1 C1.67 2.32 1.34 3.64 1 5 C2.32 4.67 3.64 4.34 5 4 C5 4.66 5 5.32 5 6 C5.99 6.33 6.98 6.66 8 7 C4.71303767 7.79953138 3.28976808 8.09658936 0 7 C-1.125 2.25 -1.125 2.25 0 0 Z " fill="#BAAA4D" transform="translate(137,43)"/>
<path d="M0 0 C1.98 0.99 1.98 0.99 4 2 C3.67 3.98 3.34 5.96 3 8 C2.01 8 1.02 8 0 8 C0 5.36 0 2.72 0 0 Z " fill="#E7C82B" transform="translate(127,34)"/>
<path d="M0 0 C-1 2 -1 2 -2 3 C-2.12375 4.134375 -2.2475 5.26875 -2.375 6.4375 C-2.58125 7.613125 -2.7875 8.78875 -3 10 C-3.99 10.66 -4.98 11.32 -6 12 C-6.99 11.67 -7.98 11.34 -9 11 C-8.0409375 10.443125 -8.0409375 10.443125 -7.0625 9.875 C-4.36141928 7.41947207 -4.31592995 5.55421195 -4 2 C-4.66 1.67 -5.32 1.34 -6 1 C-3 0 -3 0 0 0 Z " fill="#29617B" transform="translate(145,51)"/>
<path d="M0 0 C1.485 0.99 1.485 0.99 3 2 C3.1875 5.625 3.1875 5.625 3 9 C2.01 9.33 1.02 9.66 0 10 C0 6.7 0 3.4 0 0 Z " fill="#E9C929" transform="translate(117,42)"/>
<path d="M0 0 C-0.66 1.32 -1.32 2.64 -2 4 C-4.97 4 -7.94 4 -11 4 C-7.5224005 1.03760042 -4.56330809 0 0 0 Z " fill="#DABF34" transform="translate(157,41)"/>
<path d="M0 0 C3.17538332 0.34021964 4.02276865 1.02466604 6.25 3.4375 C8 6 8 6 8 8 C3.79373966 6.49776416 2.26099979 3.71449966 0 0 Z " fill="#D9BF36" transform="translate(105,45)"/>
<path d="M0 0 C0.33 0.99 0.66 1.98 1 3 C2.98 2.67 4.96 2.34 7 2 C5.515 4.475 5.515 4.475 4 7 C2.35 6.01 0.7 5.02 -1 4 C-0.67 2.68 -0.34 1.36 0 0 Z " fill="#D8BE39" transform="translate(112,189)"/>
<path d="M0 0 C1.32 1.32 2.64 2.64 4 4 C3.34 5.32 2.68 6.64 2 8 C1.01 8 0.02 8 -1 8 C-0.67 5.36 -0.34 2.72 0 0 Z " fill="#2F637A" transform="translate(121,79)"/>
<path d="M0 0 C1.98 0.99 1.98 0.99 4 2 C3.67 4.64 3.34 7.28 3 10 C1.5 8.9375 1.5 8.9375 0 7 C-0.1875 3.3125 -0.1875 3.3125 0 0 Z " fill="#E8C92A" transform="translate(108,63)"/>
<path d="M0 0 C2.9375 0.25 2.9375 0.25 6 1 C6.66 1.99 7.32 2.98 8 4 C2.46153846 4.36923077 2.46153846 4.36923077 0.125 2.5 C-0.24625 2.005 -0.6175 1.51 -1 1 C-0.67 0.67 -0.34 0.34 0 0 Z " fill="#E4C62E" transform="translate(149,59)"/>
<path d="M0 0 C0.99 0.33 1.98 0.66 3 1 C3 2.98 3 4.96 3 7 C2.01 7.33 1.02 7.66 0 8 C0 5.36 0 2.72 0 0 Z " fill="#E6C72C" transform="translate(118,79)"/>
<path d="M0 0 C2.375 0.1875 2.375 0.1875 5 1 C6.3125 3.5625 6.3125 3.5625 7 6 C3.625 6.125 3.625 6.125 0 6 C-0.66 5.34 -1.32 4.68 -2 4 C-0.35 3.67 1.3 3.34 3 3 C2.01 2.01 1.02 1.02 0 0 Z " fill="#5C7573" transform="translate(99,67)"/>
<path d="M0 0 C1.4540625 0.0309375 1.4540625 0.0309375 2.9375 0.0625 C2.6075 0.7225 2.2775 1.3825 1.9375 2.0625 C1.2775 2.0625 0.6175 2.0625 -0.0625 2.0625 C-0.0625 3.0525 -0.0625 4.0425 -0.0625 5.0625 C-1.0525 5.3925 -2.0425 5.7225 -3.0625 6.0625 C-3.44468767 4.40635343 -3.77645102 2.73792976 -4.0625 1.0625 C-3.0625 0.0625 -3.0625 0.0625 0 0 Z " fill="#2D6379" transform="translate(151.0625,48.9375)"/>
<path d="M0 0 C0.66 0 1.32 0 2 0 C1.49202991 4.3177458 0.80317221 8.03302114 -1 12 C-2.4783226 9.04335481 -2.06032783 6.25770263 -2 3 C-1.01 3 -0.02 3 1 3 C0.67 2.01 0.34 1.02 0 0 Z " fill="#366778" transform="translate(133,208)"/>
<path d="M0 0 C0.66 0 1.32 0 2 0 C2.66 1.32 3.32 2.64 4 4 C3.01 5.485 3.01 5.485 2 7 C1.01 6.67 0.02 6.34 -1 6 C-0.67 4.02 -0.34 2.04 0 0 Z " fill="#8C9060" transform="translate(111,67)"/>
<path d="M0 0 C1.0625 1.875 1.0625 1.875 2 4 C1 6 1 6 -1 7 C-1.33 6.34 -1.66 5.68 -2 5 C-2.99 5.495 -2.99 5.495 -4 6 C-4 5.01 -4 4.02 -4 3 C-2 1.3125 -2 1.3125 0 0 Z " fill="#285F7B" transform="translate(126,48)"/>
<path d="M0 0 C0.99 0.66 1.98 1.32 3 2 C2.34 2 1.68 2 1 2 C1.061875 3.423125 1.061875 3.423125 1.125 4.875 C1 8 1 8 -1 10 C-1.66 8.35 -2.32 6.7 -3 5 C-2.01 5 -1.02 5 0 5 C0 3.35 0 1.7 0 0 Z " fill="#386579" transform="translate(113,41)"/>
<path d="M0 0 C0.66 0 1.32 0 2 0 C2.1875 2.875 2.1875 2.875 2 6 C1.01 6.66 0.02 7.32 -1 8 C-1.04241723 5.66705225 -1.04092937 3.33297433 -1 1 C-0.67 0.67 -0.34 0.34 0 0 Z " fill="#EBCB28" transform="translate(124,43)"/>
<path d="M0 0 C3 2 3 2 3.6875 5.125 C3.8421875 6.548125 3.8421875 6.548125 4 8 C3.01 7.67 2.02 7.34 1 7 C0.67 4.69 0.34 2.38 0 0 Z " fill="#E6C72D" transform="translate(101,48)"/>
<path d="M0 0 C0.33 1.32 0.66 2.64 1 4 C2.32 3.67 3.64 3.34 5 3 C5 3.66 5 4.32 5 5 C3.02 5.66 1.04 6.32 -1 7 C-1.04254356 5.00045254 -1.04080783 2.99958364 -1 1 C-0.67 0.67 -0.34 0.34 0 0 Z " fill="#496C76" transform="translate(145,38)"/>
<path d="M0 0 C0.66 0 1.32 0 2 0 C1.67 1.65 1.34 3.3 1 5 C0.01 5.33 -0.98 5.66 -2 6 C-1.125 1.125 -1.125 1.125 0 0 Z " fill="#EDCC25" transform="translate(119,66)"/>
<path d="M0 0 C0.66 0.66 1.32 1.32 2 2 C-0.25 3.625 -0.25 3.625 -3 5 C-5.3125 4.1875 -5.3125 4.1875 -7 3 C-4.69 2.01 -2.38 1.02 0 0 Z " fill="#537174" transform="translate(145,61)"/>
<path d="M0 0 C1.98 0 3.96 0 6 0 C6 0.66 6 1.32 6 2 C3.69 2.33 1.38 2.66 -1 3 C-0.67 2.01 -0.34 1.02 0 0 Z " fill="#DDC133" transform="translate(156,49)"/>
</svg>
